<svg width="21" height="20" viewBox="0 0 21 20" fill="none" xmlns="http://www.w3.org/2000/svg">
<path d="M17.7583 3.04551C17.7583 3.04551 19.3771 2.41426 19.2417 3.94717C19.1971 4.57842 18.7925 6.788 18.4775 9.17759L17.3983 16.2568C17.3983 16.2568 17.3083 17.2938 16.4988 17.4743C15.6896 17.6543 14.4754 16.843 14.2504 16.6626C14.0704 16.5272 10.8779 14.498 9.75376 13.5063C9.43876 13.2355 9.07876 12.6947 9.79876 12.0634L14.52 7.55425C15.0596 7.01342 15.5992 5.75092 13.3508 7.28384L7.05501 11.5672C7.05501 11.5672 6.33542 12.0184 4.98667 11.6126L2.06334 10.7105C2.06334 10.7105 0.984172 10.0343 2.82792 9.35801C7.32501 7.23884 12.8563 5.07467 17.7575 3.04551H17.7583Z" fill="white"/>
</svg>
