<svg width="22" height="22" viewBox="0 0 22 22" fill="none" xmlns="http://www.w3.org/2000/svg">
<path d="M7.75 18.5833V12.0833C7.75 10.8867 6.77995 9.91667 5.58333 9.91667H3.41667C2.22005 9.91667 1.25 10.8867 1.25 12.0833V18.5833C1.25 19.78 2.22005 20.75 3.41667 20.75H5.58333C6.77995 20.75 7.75 19.78 7.75 18.5833ZM7.75 18.5833V7.75C7.75 6.55338 8.72005 5.58333 9.91667 5.58333H12.0833C13.28 5.58333 14.25 6.55338 14.25 7.75V18.5833M7.75 18.5833C7.75 19.78 8.72005 20.75 9.91667 20.75H12.0833C13.28 20.75 14.25 19.78 14.25 18.5833M14.25 18.5833V3.41667C14.25 2.22005 15.2201 1.25 16.4167 1.25H18.5833C19.78 1.25 20.75 2.22005 20.75 3.41667V18.5833C20.75 19.78 19.78 20.75 18.5833 20.75H16.4167C15.2201 20.75 14.25 19.78 14.25 18.5833Z" stroke="#9CA3AF" stroke-width="2" stroke-linecap="round" stroke-linejoin="round"/>
</svg>
