<svg width="17" height="4" viewBox="0 0 17 4" fill="none" xmlns="http://www.w3.org/2000/svg">
<path d="M2.375 2H2.38375M8.5 2H8.50875M14.625 2H14.6338M3.25 2C3.25 2.48325 2.85825 2.875 2.375 2.875C1.89175 2.875 1.5 2.48325 1.5 2C1.5 1.51675 1.89175 1.125 2.375 1.125C2.85825 1.125 3.25 1.51675 3.25 2ZM9.375 2C9.375 2.48325 8.98325 2.875 8.5 2.875C8.01675 2.875 7.625 2.48325 7.625 2C7.625 1.51675 8.01675 1.125 8.5 1.125C8.98325 1.125 9.375 1.51675 9.375 2ZM15.5 2C15.5 2.48325 15.1082 2.875 14.625 2.875C14.1418 2.875 13.75 2.48325 13.75 2C13.75 1.51675 14.1418 1.125 14.625 1.125C15.1082 1.125 15.5 1.51675 15.5 2Z" stroke="#374151" stroke-width="1.67" stroke-linecap="round" stroke-linejoin="round"/>
</svg>
