<svg width="22" height="18" viewBox="0 0 22 18" fill="none" xmlns="http://www.w3.org/2000/svg">
<path d="M16.4167 5.75033V3.58366C16.4167 2.38704 15.4466 1.41699 14.25 1.41699H3.41667C2.22005 1.41699 1.25 2.38704 1.25 3.58366V10.0837C1.25 11.2803 2.22005 12.2503 3.41667 12.2503H5.58333M7.75 16.5837H18.5833C19.78 16.5837 20.75 15.6136 20.75 14.417V7.91699C20.75 6.72037 19.78 5.75033 18.5833 5.75033H7.75C6.55338 5.75033 5.58333 6.72037 5.58333 7.91699V14.417C5.58333 15.6136 6.55338 16.5837 7.75 16.5837ZM15.3333 11.167C15.3333 12.3636 14.3633 13.3337 13.1667 13.3337C11.9701 13.3337 11 12.3636 11 11.167C11 9.97037 11.9701 9.00032 13.1667 9.00032C14.3633 9.00032 15.3333 9.97037 15.3333 11.167Z" stroke="#9CA3AF" stroke-width="2" stroke-linecap="round" stroke-linejoin="round"/>
</svg>
