<svg width="22" height="22" viewBox="0 0 22 22" fill="none" xmlns="http://www.w3.org/2000/svg">
<path d="M12.625 1.98351L12.2501 2.31438C12.257 2.32216 12.2641 2.32973 12.2714 2.33707L12.625 1.98351ZM20.0165 12.625L19.6856 12.2501C19.6778 12.257 19.6703 12.2641 19.6629 12.2714L20.0165 12.625ZM20.2083 9.56684L20.5832 9.23598C20.5763 9.2282 20.5692 9.22063 20.5619 9.21329L20.2083 9.56684ZM9.56684 20.2083L9.21329 20.5619C9.22063 20.5692 9.2282 20.5763 9.23598 20.5832L9.56684 20.2083ZM12.4332 20.2083L12.764 20.5832C12.7718 20.5763 12.7794 20.5692 12.7867 20.5619L12.4332 20.2083ZM1.98351 12.625L2.33707 12.2714L2.32605 12.2604L2.31438 12.2501L1.98351 12.625ZM5.58333 5.08333C5.30719 5.08333 5.08333 5.30719 5.08333 5.58333C5.08333 5.85948 5.30719 6.08333 5.58333 6.08333V5.08333ZM5.59417 6.08333C5.87031 6.08333 6.09417 5.85948 6.09417 5.58333C6.09417 5.30719 5.87031 5.08333 5.59417 5.08333V6.08333ZM1.75 5.58333C1.75 3.46624 3.46624 1.75 5.58333 1.75V0.75C2.91396 0.75 0.75 2.91396 0.75 5.58333H1.75ZM1.75 11V5.58333H0.75V11H1.75ZM5.58333 1.75H11V0.75H5.58333V1.75ZM11 1.75C11.4977 1.75 11.944 1.96754 12.2501 2.31438L12.9999 1.65265C12.512 1.09986 11.7965 0.75 11 0.75V1.75ZM20.25 11C20.25 11.4977 20.0325 11.944 19.6856 12.2501L20.3474 12.9999C20.9001 12.512 21.25 11.7965 21.25 11H20.25ZM19.8335 9.89771C20.0931 10.1918 20.25 10.577 20.25 11H21.25C21.25 10.324 20.9978 9.70576 20.5832 9.23598L19.8335 9.89771ZM11 20.25C10.577 20.25 10.1918 20.0931 9.89771 19.8335L9.23598 20.5832C9.70576 20.9978 10.324 21.25 11 21.25V20.25ZM12.1023 19.8335C11.8082 20.0931 11.423 20.25 11 20.25V21.25C11.676 21.25 12.2942 20.9978 12.764 20.5832L12.1023 19.8335ZM2.31438 12.2501C1.96754 11.944 1.75 11.4977 1.75 11H0.75C0.75 11.7965 1.09986 12.512 1.65265 12.9999L2.31438 12.2501ZM12.2714 2.33707L19.8548 9.9204L20.5619 9.21329L12.9786 1.62996L12.2714 2.33707ZM9.9204 19.8548L2.33707 12.2714L1.62996 12.9786L9.21329 20.5619L9.9204 19.8548ZM19.6629 12.2714L12.0796 19.8548L12.7867 20.5619L20.37 12.9786L19.6629 12.2714ZM5.58333 6.08333H5.59417V5.08333H5.58333V6.08333Z" fill="#9CA3AF"/>
</svg>
