<svg width="22" height="22" viewBox="0 0 22 22" fill="none" xmlns="http://www.w3.org/2000/svg">
<path d="M2.33333 1.79199V0.791992H1.33333V1.79199H2.33333ZM19.6667 1.79199H20.6667V0.791992H19.6667V1.79199ZM4.87623 9.75155C4.4857 10.1421 4.4857 10.7752 4.87623 11.1658C5.26675 11.5563 5.89992 11.5563 6.29044 11.1658L4.87623 9.75155ZM8.83333 7.20866L9.54044 6.50155C9.14992 6.11103 8.51675 6.11103 8.12623 6.50155L8.83333 7.20866ZM12.0833 10.4587L11.3762 11.1658C11.7668 11.5563 12.3999 11.5563 12.7904 11.1658L12.0833 10.4587ZM17.1238 6.83243C17.5143 6.44191 17.5143 5.80874 17.1238 5.41822C16.7332 5.02769 16.1001 5.02769 15.7096 5.41822L17.1238 6.83243ZM5.95956 19.5016C5.56904 19.8921 5.56904 20.5252 5.95956 20.9158C6.35008 21.3063 6.98325 21.3063 7.37377 20.9158L5.95956 19.5016ZM11 15.8753L11.7071 15.1682C11.3166 14.7777 10.6834 14.7777 10.2929 15.1682L11 15.8753ZM14.6262 20.9158C15.0168 21.3063 15.6499 21.3063 16.0404 20.9158C16.431 20.5252 16.431 19.8921 16.0404 19.5016L14.6262 20.9158ZM1.25 0.791992C0.697715 0.791992 0.25 1.23971 0.25 1.79199C0.25 2.34428 0.697715 2.79199 1.25 2.79199V0.791992ZM20.75 2.79199C21.3023 2.79199 21.75 2.34428 21.75 1.79199C21.75 1.23971 21.3023 0.791992 20.75 0.791992V2.79199ZM2.33333 2.79199H19.6667V0.791992H2.33333V2.79199ZM18.6667 1.79199V14.792H20.6667V1.79199H18.6667ZM18.5833 14.8753H3.41667V16.8753H18.5833V14.8753ZM3.33333 14.792V1.79199H1.33333V14.792H3.33333ZM3.41667 14.8753C3.37064 14.8753 3.33333 14.838 3.33333 14.792H1.33333C1.33333 15.9426 2.26607 16.8753 3.41667 16.8753V14.8753ZM18.6667 14.792C18.6667 14.838 18.6294 14.8753 18.5833 14.8753V16.8753C19.7339 16.8753 20.6667 15.9426 20.6667 14.792H18.6667ZM6.29044 11.1658L9.54044 7.91577L8.12623 6.50155L4.87623 9.75155L6.29044 11.1658ZM8.12623 7.91577L11.3762 11.1658L12.7904 9.75155L9.54044 6.50155L8.12623 7.91577ZM12.7904 11.1658L17.1238 6.83243L15.7096 5.41822L11.3762 9.75155L12.7904 11.1658ZM7.37377 20.9158L11.7071 16.5824L10.2929 15.1682L5.95956 19.5016L7.37377 20.9158ZM10.2929 16.5824L14.6262 20.9158L16.0404 19.5016L11.7071 15.1682L10.2929 16.5824ZM1.25 2.79199H20.75V0.791992H1.25V2.79199Z" fill="#9CA3AF"/>
</svg>
