<svg width="22" height="20" viewBox="0 0 22 20" fill="none" xmlns="http://www.w3.org/2000/svg">
<path d="M18.5833 18.6663H3.41667C2.22005 18.6663 1.25 17.6963 1.25 16.4997L1.25 3.49967C1.25 2.30306 2.22005 1.33301 3.41667 1.33301L14.25 1.33301C15.4466 1.33301 16.4167 2.30306 16.4167 3.49967V4.58301M18.5833 18.6663C17.3867 18.6663 16.4167 17.6963 16.4167 16.4997L16.4167 4.58301M18.5833 18.6663C19.78 18.6663 20.75 17.6963 20.75 16.4997V6.74967C20.75 5.55306 19.78 4.58301 18.5833 4.58301L16.4167 4.58301M12.0833 1.33301L7.75 1.33301M5.58333 14.333H12.0833M5.58333 5.66634H12.0833V9.99967H5.58333V5.66634Z" stroke="#9CA3AF" stroke-width="2" stroke-linecap="round" stroke-linejoin="round"/>
</svg>
