<svg width="24" height="24" viewBox="0 0 24 24" fill="none" xmlns="http://www.w3.org/2000/svg">
<circle cx="7" cy="6" r="3" stroke="#044AB1" stroke-width="1.4"/>
<circle cx="16.5" cy="8.5" r="2.5" stroke="#044AB1" stroke-width="1.4"/>
<path d="M1 18C1 14.6863 3.68629 12 7 12V12C10.3137 12 13 14.6863 13 18V20H1V18Z" stroke="#044AB1" stroke-width="1.4"/>
<path d="M12.5374 15.6858L11.8917 15.956L11.7141 15.5317L12.0332 15.2003L12.5374 15.6858ZM13 20V20.7H12.3V20H13ZM22 20H22.7V20.7H22V20ZM12.3 18C12.3 17.2742 12.1545 16.5841 11.8917 15.956L13.1832 15.4156C13.5163 16.2118 13.7 17.0853 13.7 18H12.3ZM12.3 20V18H13.7V20H12.3ZM13 19.3H13.3571V20.7H13V19.3ZM13.3571 19.3H22V20.7H13.3571V19.3ZM21.3 20V19.5H22.7V20H21.3ZM21.3 19.5C21.3 16.849 19.151 14.7 16.5 14.7V13.3C19.9242 13.3 22.7 16.0758 22.7 19.5H21.3ZM16.5 14.7C15.1415 14.7 13.9158 15.2635 13.0417 16.1713L12.0332 15.2003C13.1602 14.0297 14.7455 13.3 16.5 13.3V14.7Z" fill="#044AB1"/>
</svg>
