<svg width="24" height="24" viewBox="0 0 24 24" fill="none" xmlns="http://www.w3.org/2000/svg">
<path d="M5.41875 20.5312C5.33066 20.6413 5.27535 20.7739 5.25917 20.9139C5.24299 21.0539 5.26658 21.1957 5.32726 21.3229C5.38793 21.4501 5.48322 21.5576 5.60221 21.6332C5.72119 21.7087 5.85906 21.7492 6 21.75L5.41875 20.5312ZM5.41875 20.5312L6.88375 18.7L5.41875 20.5312ZM12.05 4.45H12.75H20.25C20.3867 4.45 20.5198 4.48499 20.6373 4.55H20.25H3.75H3.3627C3.48021 4.48499 3.6133 4.45 3.75 4.45H11.25H11.95V3.75V2.25C11.95 2.23674 11.9553 2.22402 11.9646 2.21465L11.4697 1.71967L11.9646 2.21464C11.974 2.20527 11.9867 2.2 12 2.2C12.0133 2.2 12.026 2.20527 12.0354 2.21465C12.0447 2.22402 12.05 2.23674 12.05 2.25V3.75V4.45ZM2.95 5.25C2.95 5.1133 2.98499 4.98021 3.05 4.8627V5.25V16.5V16.8873C2.98499 16.7698 2.95 16.6367 2.95 16.5V5.25ZM3.75 17.3C3.6133 17.3 3.48021 17.265 3.3627 17.2H3.75H20.25H20.6373C20.5198 17.265 20.3867 17.3 20.25 17.3H16.5563H15.0998L16.0096 18.4373L18.0346 20.9685L18.0348 20.9688C18.0407 20.9761 18.0444 20.9849 18.0455 20.9943C18.0465 21.0036 18.045 21.0131 18.0409 21.0215C18.0369 21.03 18.0305 21.0372 18.0226 21.0422C18.0147 21.0473 18.0055 21.05 17.9961 21.05L17.9954 21.05C17.9906 21.05 17.9858 21.049 17.9815 21.0469L17.6767 21.677L17.9815 21.0469C17.9772 21.0448 17.9735 21.0418 17.9705 21.038L17.9706 21.038L17.9654 21.0315L15.1904 17.5627L14.9802 17.3H14.6437H9.35625H9.01981L8.80964 17.5627L6.03464 21.0315L6.0346 21.0314L6.02948 21.038C6.02653 21.0418 6.02276 21.0448 6.01846 21.0469L6.32335 21.677L6.01845 21.0469C6.01415 21.049 6.00943 21.05 6.00464 21.05L6.00393 21.05C5.99453 21.05 5.98534 21.0473 5.97741 21.0422C5.96947 21.0372 5.96312 21.03 5.95908 21.0215C5.95503 21.0131 5.95346 21.0036 5.95454 20.9943C5.95562 20.9849 5.95931 20.9761 5.96518 20.9688L5.96536 20.9685L7.99036 18.4373L8.90019 17.3H7.44375H3.75ZM21.05 16.5C21.05 16.6367 21.015 16.7698 20.95 16.8873V16.5V5.25V4.8627C21.015 4.98021 21.05 5.1133 21.05 5.25V16.5Z" fill="#044AB1" stroke="#044AB1" stroke-width="1.4"/>
</svg>
