<svg width="220" height="72" viewBox="0 0 220 72" fill="none" xmlns="http://www.w3.org/2000/svg">
<g clip-path="url(#clip0_1501_120188)">
<path d="M42.9695 9.95816C37.9291 7.72794 33.1158 5.02447 28.5954 1.88477C24.0758 5.02587 19.2623 7.72942 14.2212 9.95816C10.0226 11.8066 5.54994 12.9699 0.976562 13.4028V37.3593C0.976562 43.9525 2.02462 51.1379 10.5883 59.2274C15.7647 64.1008 21.8928 67.8722 28.5954 70.3095C35.2999 67.873 41.43 64.1015 46.6078 59.2274C55.1661 51.154 56.2141 43.9525 56.2141 37.3593V13.4028C51.6409 12.9692 47.1684 11.806 42.9695 9.95816Z" fill="#A80067"/>
<path d="M46.1021 38.1015L46.0098 32.1379L45.7546 20.2216V19.6565H45.2115C44.4463 19.6279 43.6841 19.5451 42.9308 19.4089C42.1597 19.2743 41.394 19.1021 40.6337 18.903C39.1044 18.4938 37.6114 17.9609 36.17 17.3098C34.7366 16.6338 33.357 15.8512 32.0429 14.9685C30.7222 14.0977 29.4531 13.1524 28.2417 12.1375C29.3908 13.2429 30.6019 14.2833 31.8691 15.2538C33.1321 16.2404 34.4722 17.1258 35.8767 17.9019C37.307 18.6588 38.8027 19.2875 40.3459 19.7803C41.7211 20.2313 43.1354 20.5556 44.5707 20.7491L44.3264 32.1595L44.2341 38.123C44.2341 39.108 44.2341 40.1306 44.1798 41.0779C44.1494 42.0211 44.0441 42.9606 43.8648 43.8874C43.5101 45.708 42.7939 47.4406 41.7578 48.9844C40.6867 50.5483 39.4082 51.9622 37.9566 53.188C36.4994 54.4448 34.9268 55.5638 33.2593 56.5304C32.4285 57.0148 31.5705 57.4669 30.7016 57.8759C29.9631 58.2204 29.1757 58.5433 28.4426 58.8017C27.8181 58.5648 27.1556 58.2634 26.5311 57.9728C25.7763 57.6014 25.0269 57.2085 24.3047 56.7779C22.8515 55.9229 21.4679 54.9565 20.1667 53.8877C17.5764 51.7348 15.2794 49.2482 14.139 46.2395C13.8593 45.4903 13.6414 44.7199 13.4874 43.9359C13.3424 43.1317 13.2499 42.3191 13.2104 41.5031C13.2104 41.0886 13.2104 40.6742 13.1724 40.249V38.9465V36.3415L13.0964 28.2681L19.6671 34.5277L28.0788 42.3965L28.6218 42.8917L29.0019 42.3158L34.3671 34.124C36.1483 31.3898 37.9167 28.6449 39.6726 25.8891C37.7068 28.4977 35.7555 31.1171 33.8186 33.7472L28.4263 41.0725L20.8238 33.3436L12.738 25.1733L11.0329 23.4563V25.8891L10.9297 36.32V38.925V40.2275C10.9297 40.6742 10.9297 41.1263 10.9297 41.5838C10.9661 42.506 11.0641 43.4248 11.2229 44.3341C11.3954 45.2506 11.6461 46.1509 11.9723 47.0253C12.3081 47.9015 12.7149 48.7492 13.1887 49.5603C13.6682 50.3559 14.2016 51.1184 14.7852 51.8424C15.9452 53.2531 17.2441 54.5459 18.6625 55.7015C20.0451 56.8582 21.5238 57.8971 23.0828 58.8071C23.8594 59.2645 24.6685 59.6844 25.4885 60.0773C26.3239 60.4829 27.1814 60.8423 28.057 61.1537L28.4263 61.2829L28.7847 61.1591C29.7875 60.8202 30.7686 60.4212 31.7225 59.9642C32.6565 59.5175 33.5688 59.0277 34.4648 58.5056C36.2544 57.4546 37.9319 56.2265 39.4716 54.8403C41.0472 53.4522 42.428 51.861 43.577 50.1093C44.7372 48.3088 45.5202 46.2954 45.8795 44.1888C46.0548 43.1697 46.1492 42.1385 46.1618 41.1048C46.1618 40.066 46.1618 39.1026 46.1293 38.1015" fill="white"/>
<path d="M71.3828 30.0391H73.8102L77.758 36.121L81.7059 30.0391H84.1333V42.9027H81.8525V33.6775L77.758 39.7433H77.682L73.6256 33.7151V42.9027H71.3828V30.0391Z" fill="#575656"/>
<path d="M87.4688 30.0391H97.0913V32.0628H89.7495V35.4052H96.2551V37.4451H89.7495V40.8789H97.1837V42.9027H87.4688V30.0391Z" fill="#575656"/>
<path d="M111.58 43.2848L110.021 41.9069C109.011 42.6066 107.828 43.0214 106.599 43.1073C105.37 43.1931 104.14 42.9466 103.041 42.3942C101.942 41.8418 101.014 41.0041 100.358 39.9704C99.7014 38.9367 99.3401 37.7458 99.3127 36.5247V36.4708C99.3053 35.5879 99.4767 34.7124 99.8168 33.8963C100.157 33.0802 100.659 32.34 101.293 31.7197C101.927 31.0993 102.68 30.6114 103.508 30.2848C104.335 29.9582 105.221 29.7996 106.112 29.8184C106.999 29.7943 107.882 29.9483 108.708 30.2711C109.534 30.5938 110.285 31.0787 110.917 31.6965C111.549 32.3144 112.048 33.0524 112.385 33.8664C112.722 34.6804 112.89 35.5534 112.878 36.4332V36.4708C112.878 37.8932 112.418 39.2782 111.564 40.4214L113.046 41.6701L111.58 43.2848ZM108.322 40.4591L106.095 38.5484L107.561 36.8906L109.842 38.9521C110.269 38.2082 110.487 37.3643 110.472 36.5085V36.4708C110.498 35.8814 110.403 35.2929 110.194 34.7405C109.985 34.1882 109.665 33.6834 109.254 33.2563C108.844 32.8291 108.35 32.4885 107.804 32.2548C107.257 32.021 106.669 31.899 106.074 31.8959C103.5 31.8959 101.702 33.9196 101.702 36.417V36.4547C101.673 37.0465 101.766 37.638 101.975 38.1933C102.183 38.7486 102.504 39.2562 102.916 39.6853C103.328 40.1145 103.824 40.4564 104.373 40.6902C104.922 40.924 105.514 41.045 106.112 41.0458C106.894 41.0556 107.664 40.8527 108.338 40.4591H108.322Z" fill="#575656"/>
<path d="M120.246 29.9475H122.358L128.065 42.9026H125.66L124.356 39.7971H118.22L116.89 42.9026H114.555L120.246 29.9475ZM123.504 37.7948L121.261 32.6494L119.04 37.8164L123.504 37.7948Z" fill="#575656"/>
<path d="M134.989 41.0457L136.363 39.431C137.457 40.4941 138.925 41.0942 140.457 41.1049C141.864 41.1049 142.754 40.4428 142.754 39.4902V39.431C142.754 38.5268 142.238 37.9939 139.827 37.4611C137.063 36.8206 135.483 35.9756 135.483 33.6235V33.5858C135.483 31.3845 137.335 29.8559 139.909 29.8559C141.622 29.8189 143.293 30.3918 144.617 31.4706L143.395 33.1768C142.397 32.3711 141.162 31.9067 139.876 31.8528C138.54 31.8528 137.764 32.5148 137.764 33.3813V33.4136C137.764 34.4093 138.356 34.8507 140.854 35.4373C143.569 36.137 145.008 37.052 145.008 39.2049V39.2372C145.008 41.6646 143.102 43.0802 140.376 43.0802C138.367 43.1053 136.425 42.3699 134.945 41.0241" fill="#575656"/>
<path d="M150.124 30.0391H147.844V42.8973H150.124V30.0391Z" fill="#575656"/>
<path d="M153.017 36.5086V36.471C153.001 35.595 153.164 34.7248 153.494 33.9123C153.825 33.0997 154.317 32.3612 154.941 31.7407C155.565 31.1202 156.308 30.6303 157.127 30.3001C157.946 29.9699 158.823 29.8061 159.707 29.8185C161.535 29.7354 163.324 30.363 164.692 31.5677L163.247 33.2739C162.267 32.3574 160.961 31.8621 159.615 31.896C157.241 31.896 155.406 33.9521 155.406 36.4118V36.4494C155.406 39.0975 157.165 41.0405 159.821 41.0405C160.941 41.0569 162.037 40.7174 162.949 40.0717V37.7035H159.647V35.7174H165.175V41.0997C163.665 42.3896 161.738 43.1 159.745 43.1019C155.683 43.1019 153.017 40.2332 153.017 36.4871M156.351 26.3469H157.947C158.17 26.9174 158.615 27.2619 159.576 27.2619C160.538 27.2619 160.967 26.9174 161.206 26.3469H162.797C162.65 27.9616 161.368 28.8066 159.593 28.8066C157.817 28.8066 156.497 27.967 156.351 26.3685V26.3469Z" fill="#575656"/>
<path d="M167.561 36.5085V36.4708C167.554 35.5876 167.726 34.712 168.067 33.8959C168.408 33.0797 168.91 32.3396 169.544 31.7194C170.179 31.0991 170.932 30.6113 171.76 30.2847C172.588 29.9582 173.474 29.7996 174.365 29.8184C175.252 29.7943 176.135 29.9483 176.961 30.2711C177.787 30.5938 178.538 31.0787 179.17 31.6965C179.802 32.3144 180.302 33.0524 180.639 33.8664C180.976 34.6804 181.143 35.5534 181.131 36.4332V36.4708C181.138 37.3545 180.966 38.2306 180.625 39.0471C180.284 39.8636 179.781 40.6039 179.146 41.2243C178.511 41.8446 177.756 42.3323 176.928 42.6585C176.099 42.9847 175.213 43.1428 174.322 43.1233C173.434 43.1473 172.551 42.9933 171.725 42.6706C170.9 42.3478 170.148 41.863 169.516 41.2451C168.884 40.6273 168.385 39.8892 168.048 39.0753C167.711 38.2613 167.543 37.3882 167.555 36.5085M178.736 36.5085V36.4708C178.763 35.8798 178.668 35.2897 178.458 34.7359C178.248 34.1822 177.927 33.6763 177.515 33.2488C177.102 32.8213 176.607 32.481 176.058 32.2485C175.509 32.016 174.918 31.8961 174.322 31.8959C171.748 31.8959 169.95 33.9143 169.95 36.4116V36.4493C169.921 37.042 170.013 37.6345 170.222 38.1908C170.43 38.7471 170.751 39.2556 171.164 39.6854C171.576 40.1153 172.073 40.4575 172.623 40.6913C173.174 40.9252 173.766 41.0457 174.365 41.0458C176.944 41.0458 178.742 39.0059 178.742 36.5085H178.736Z" fill="#575656"/>
<path d="M183.891 30.0391H189.674C191.045 29.9643 192.39 30.4263 193.421 31.3255C194.137 32.0737 194.527 33.0715 194.507 34.1027V34.1404C194.507 36.2502 193.225 37.5204 191.428 38.0318L194.931 42.8758H192.215L189.028 38.3924H186.171V42.8758H183.891V30.0391ZM189.522 36.4171C191.151 36.4171 192.194 35.5882 192.194 34.2642V34.2319C192.194 32.8325 191.211 32.079 189.506 32.079H186.188V36.3848L189.522 36.4171Z" fill="#575656"/>
<path d="M200.435 32.1328H196.297V30.0391H206.848V32.1328H202.71V42.9027H200.435V32.1328Z" fill="#575656"/>
<path d="M212.181 29.9475H214.293L220.001 42.9026H217.589L216.275 39.7971H210.155L208.825 42.9026H206.484L212.181 29.9475ZM215.439 37.7948L213.196 32.6494L210.975 37.8164L215.439 37.7948Z" fill="#575656"/>
<path d="M28.5908 71.3212L28.2976 71.2243C21.4459 68.7574 15.185 64.9087 9.9104 59.9215C1.20011 51.6974 0 44.2161 0 37.3591V12.4876L0.92316 12.4392C5.37873 12.001 9.73572 10.8637 13.8311 9.0699C18.8064 6.86287 23.5578 4.19011 28.0206 1.08801L28.5637 0.678955L29.161 1.08801C33.6259 4.18684 38.377 6.85941 43.3505 9.0699C47.4477 10.864 51.8065 12.0013 56.2639 12.4392L57.1871 12.4876V37.3591C57.1871 44.2161 55.987 51.6974 47.2767 59.9269C42.0021 64.9141 35.7411 68.7627 28.8895 71.2297L28.5908 71.3212ZM1.9495 14.2853V37.3591C1.9495 43.3495 2.6663 50.4165 11.2571 58.5275C16.2618 63.2141 22.1529 66.8726 28.5908 69.292C35.0291 66.87 40.9215 63.2119 45.93 58.5275C54.5208 50.4165 55.2376 43.3495 55.2376 37.3591V14.2853C50.872 13.7515 46.608 12.5911 42.5794 10.8407C37.6845 8.67709 33.0018 6.06997 28.5908 3.05253C24.1814 6.07241 19.4984 8.67966 14.6022 10.8407C10.5755 12.5909 6.31329 13.7513 1.9495 14.2853Z" fill="#B1B2B3"/>
</g>
<defs>
<clipPath id="clip0_1501_120188">
<rect width="220" height="70.6422" fill="white" transform="translate(0 0.678955)"/>
</clipPath>
</defs>
</svg>
