<svg width="220" height="58" viewBox="0 0 220 58" fill="none" xmlns="http://www.w3.org/2000/svg">
<g clip-path="url(#clip0_1501_119904)">
<path d="M92.8764 32.3729H88.4536V26.3036H92.7463C94.1772 26.3036 95.348 26.5733 96.1284 26.978C96.7788 27.5175 97.1691 28.1918 97.1691 29.2709C97.1691 31.4288 95.7382 32.3729 92.8764 32.3729ZM88.4536 17.2671H91.7057C93.2666 17.2671 94.4374 17.402 95.2179 17.8066C95.8683 18.0763 96.2585 18.7507 96.2585 19.8297C96.2585 20.2343 96.1284 20.7738 95.8683 21.1785C95.6081 21.7179 95.2179 22.1226 94.6975 22.2574C94.0471 22.5272 93.2666 22.5272 92.226 22.5272H88.4536V17.2671ZM98.0797 24.1457C100.031 23.0666 100.941 21.3134 100.941 19.1554C100.941 18.481 100.811 17.9414 100.681 17.2671C100.421 16.7276 100.161 16.0533 99.7706 15.6486C99.2504 15.1091 98.86 14.7046 98.3398 14.2999C97.6894 14.0302 97.039 13.7604 96.2585 13.6255C95.478 13.4906 94.5675 13.3558 93.5268 13.3558H86.5024C85.4618 13.3558 84.8114 13.6255 84.291 14.0302C83.9008 14.5697 83.6406 15.3789 83.6406 16.3229V36.2842H93.1366C94.1772 36.2842 95.2179 36.1493 96.1284 36.0144C96.9089 35.8797 97.8195 35.7448 98.4699 35.475C99.5106 34.9355 100.421 34.1263 101.071 33.1821C101.722 32.1032 101.982 30.8894 101.982 29.6754C101.982 26.978 100.681 25.0897 98.0797 24.1457Z" fill="#0057C2"/>
<path d="M69.4658 18.7503H69.5959L72.4577 27.1124H66.604L69.4658 18.7503ZM65.3032 30.8889H73.7585L75.7097 36.149H80.6527L79.2219 32.6423C79.2219 32.3725 79.0919 32.2376 78.9618 31.9679L72.978 15.918C72.7179 15.3784 72.4577 14.839 72.1975 14.4344C71.9374 14.0297 71.5471 13.7601 71.1569 13.4903C70.7666 13.2205 70.1162 13.0857 69.5959 13.0857C68.9455 13.0857 68.4252 13.2205 67.9049 13.4903C67.5146 13.7601 67.1244 14.0297 66.8642 14.4344C66.604 14.839 66.3439 15.3784 66.2138 15.918L60.1001 31.9679C59.97 32.2376 59.97 32.3725 59.8399 32.6423L58.5391 36.149H63.4821L65.3032 30.8889Z" fill="#0057C2"/>
<path d="M114.21 32.3729H109.657V26.3036H114.079C115.511 26.3036 116.681 26.5733 117.331 26.978C118.112 27.5175 118.372 28.1918 118.372 29.2709C118.372 31.4288 117.071 32.3729 114.21 32.3729ZM109.657 17.2671H113.038C114.6 17.2671 115.77 17.402 116.551 17.8066C117.202 18.0763 117.591 18.7507 117.591 19.8297C117.591 20.2343 117.462 20.7738 117.202 21.1785C116.942 21.7179 116.551 22.1226 116.03 22.2574C115.38 22.5272 114.6 22.5272 113.559 22.5272H109.657V17.2671ZM119.282 24.1457C121.234 23.0666 122.275 21.3134 122.275 19.1554C122.275 18.481 122.144 17.9414 121.884 17.2671C121.755 16.7276 121.364 16.0533 120.974 15.6486C120.583 15.1091 120.193 14.7046 119.542 14.2999C119.023 14.0302 118.243 13.7604 117.462 13.6255C116.681 13.4906 115.77 13.3558 114.73 13.3558H107.706C106.795 13.3558 106.015 13.6255 105.624 14.0302C105.104 14.5697 104.844 15.3789 104.844 16.3229V36.2842H114.339C115.511 36.2842 116.551 36.1493 117.331 36.0144C118.243 35.8797 119.023 35.7448 119.673 35.475C120.843 34.9355 121.624 34.1263 122.275 33.1821C122.925 32.1032 123.315 30.8894 123.315 29.6754C123.315 26.978 122.015 25.0897 119.282 24.1457Z" fill="#0057C2"/>
<path d="M10.4125 28.9992C7.16053 23.7391 5.59956 17.535 6.6402 11.1959C7.03045 9.03792 8.72149 7.41944 10.8028 7.01482C12.6239 6.74507 14.0548 6.6102 16.6564 6.87995C15.7459 8.49842 15.0955 10.1169 14.5751 11.7353C13.2743 11.6005 11.8434 11.8702 11.4532 12.0051C10.4125 16.1862 11.7133 23.1996 15.8759 28.9992H10.4125Z" fill="#0057C2"/>
<path d="M15.4844 16.1874C16.7852 10.253 19.9072 4.58826 24.9802 0.946691C26.6713 -0.267168 29.0128 -0.267167 30.7038 1.08156C32.2648 2.16055 33.3055 3.10467 34.9965 5.12776C33.1754 5.66726 31.7445 6.34162 30.1835 7.01599C29.2729 6.07188 28.2323 5.26263 27.842 4.99289C24.1998 7.15086 20.4275 13.0853 19.3868 20.3684L15.4844 16.1874Z" fill="#0057C2"/>
<path d="M27.8359 10.9274C32.779 7.69048 38.7627 5.93713 44.8766 7.15099C46.9578 7.55561 48.5188 9.17409 48.909 11.3321C49.1692 13.3552 49.2992 14.7039 49.1692 17.4013C47.6082 16.4572 45.9171 15.9177 44.4863 15.2434C44.4863 13.8947 44.2262 12.5459 44.0961 12.0065C40.1936 10.9274 33.4294 12.411 27.8359 16.727V10.9274Z" fill="#0057C2"/>
<path d="M40.0587 16.186C45.9123 17.6696 51.2457 20.7718 54.7579 26.0317C56.0587 27.92 55.9286 30.2129 54.7579 31.9662C53.5871 33.5847 52.8067 34.6637 50.7254 36.417C50.3351 34.6637 49.5546 33.0452 48.9042 31.5616C49.9449 30.6175 50.5953 29.4036 50.8554 28.999C48.7741 25.3574 43.0506 21.3112 36.1562 20.3671L40.0587 16.186Z" fill="#0057C2"/>
<path d="M45.2724 28.9999C48.3943 34.26 49.9553 40.4641 48.9147 46.8032C48.5244 48.9612 46.8334 50.5796 44.7521 50.8493C42.9309 51.2539 41.5 51.3888 38.8984 51.1191C39.809 49.5006 40.4594 47.8821 40.9797 46.2636C42.2805 46.2636 43.7114 45.9939 44.1017 45.8591C45.1423 41.8128 43.8415 34.7994 39.6789 28.9999H45.2724Z" fill="#0057C2"/>
<path d="M40.059 41.8118C38.7582 47.7462 35.6363 53.4109 30.5631 57.0525C28.872 58.2664 26.5306 58.2664 24.8396 56.9177C23.2786 55.8386 22.238 54.8945 20.5469 52.8714C22.3681 52.3319 23.799 51.6576 25.3598 50.9832C26.2704 51.9273 27.4411 52.7365 27.8314 52.8714C31.3436 50.8483 35.1159 44.779 36.1566 37.6307L40.059 41.8118Z" fill="#0057C2"/>
<path d="M27.8347 47.0741C22.7615 50.311 16.7778 52.0644 10.664 50.8505C8.58272 50.4459 7.02175 48.6925 6.63151 46.6694C6.37134 44.6464 6.24126 43.2977 6.37134 40.6002C8.06239 41.5443 9.62337 42.0838 11.0543 42.7582C11.0543 44.1069 11.3144 45.4556 11.4445 45.8602C15.3469 47.0741 22.1111 45.5905 27.8347 41.2746V47.0741Z" fill="#0057C2"/>
<path d="M15.4796 41.8147C9.62598 40.3311 4.29267 37.229 0.780485 31.969C-0.260162 30.0807 -0.260162 27.6531 0.780485 25.8997C1.95121 24.4161 2.7317 23.3371 4.81299 21.4489C5.20323 23.3371 5.98372 24.9555 6.63412 26.4391C5.59347 27.3833 4.94308 28.5971 4.68291 29.0018C6.76421 32.6434 12.4877 36.6895 19.382 37.6337L15.4796 41.8147Z" fill="#0057C2"/>
<path d="M59.5797 42.7562H60.6204L60.1001 41.5423L59.5797 42.7562ZM58.5391 43.97L59.8399 41.0028H60.3602L61.6609 43.97H61.1406L60.8806 43.2957H59.4497L59.1895 43.97H58.5391Z" fill="#0057C2"/>
<path d="M62.0469 43.9717V43.7019L63.3477 42.2183H62.0469V41.6788H63.9981V42.0834L62.6973 43.567H63.9981V43.9717H62.0469Z" fill="#0057C2"/>
<path d="M65.9566 43.0276H64.7859C64.7859 43.1624 64.916 43.2973 65.0461 43.4322C65.0461 43.567 65.1761 43.7019 65.4363 43.7019C65.5664 43.7019 65.6965 43.567 65.8266 43.4322C65.8266 43.4322 65.9566 43.1624 65.9566 43.0276ZM65.3062 41.6788C65.6965 41.6788 65.9566 41.8137 66.0867 41.9486C66.3469 42.2183 66.477 42.4881 66.477 42.8927C66.477 43.1624 66.3469 43.567 66.2168 43.7019C65.9566 43.9717 65.6965 44.1066 65.4363 44.1066C65.0461 44.1066 64.7859 43.9717 64.5257 43.7019C64.3957 43.4322 64.2656 43.1624 64.2656 42.8927C64.2656 42.8028 64.2656 42.7578 64.2656 42.7578H65.9566C65.9566 42.4881 65.8265 42.3532 65.6965 42.2183C65.5664 42.2183 65.4363 42.0834 65.3062 42.0834C65.0461 42.0834 64.916 42.2183 64.6558 42.3532L64.3956 42.0834C64.6558 41.8137 64.916 41.6788 65.3062 41.6788Z" fill="#0057C2"/>
<path d="M66.9922 43.9717V41.6788H67.5125V42.2183C67.6426 41.8137 67.9027 41.6788 68.293 41.6788V42.2183C68.0328 42.2183 67.7727 42.3532 67.6426 42.4881C67.5125 42.623 67.5125 42.8927 67.5125 43.1624V43.9717H66.9922Z" fill="#0057C2"/>
<path d="M69.3379 43.4322C69.468 43.5671 69.7281 43.5671 69.8582 43.5671C69.9883 43.5671 70.2485 43.5671 70.2485 43.4322C70.3785 43.2973 70.5086 43.1625 70.5086 42.8927C70.5086 42.6229 70.3785 42.488 70.2485 42.3532C70.1184 42.2183 69.9883 42.0835 69.8582 42.0835C69.7281 42.0835 69.468 42.2183 69.3379 42.3532C69.2078 42.488 69.2078 42.6229 69.2078 42.8927C69.2078 43.1625 69.2078 43.2973 69.3379 43.4322ZM69.9883 44.1065C69.7281 44.1065 69.468 43.9716 69.2078 43.702V43.9716H68.6875V40.8696H69.2078V42.0835C69.468 41.8137 69.7281 41.6789 69.9883 41.6789C70.2485 41.6789 70.5086 41.8137 70.6387 41.9486C70.8989 42.2183 71.029 42.4881 71.029 42.8927C71.029 43.2973 70.8989 43.5671 70.6387 43.702C70.5086 43.9716 70.2485 44.1065 69.9883 44.1065Z" fill="#0057C2"/>
<path d="M72.3247 43.7019C72.4548 43.7019 72.5849 43.7019 72.715 43.567C72.845 43.4322 72.845 43.2973 72.845 43.1624V43.0276C72.715 43.0276 72.5849 42.8927 72.4548 42.8927C72.1946 42.8927 72.0645 43.0276 72.0645 43.0276C71.9778 43.1175 71.9345 43.2074 71.9345 43.2973C71.9345 43.4322 71.9345 43.567 71.9345 43.567C72.0645 43.7019 72.1946 43.7019 72.3247 43.7019ZM72.1946 44.1066C71.9345 44.1066 71.8044 43.9717 71.5442 43.8368C71.4141 43.7019 71.4141 43.567 71.4141 43.4322V43.2973C71.4141 43.1624 71.4141 42.8927 71.6743 42.7578C71.8044 42.623 72.0645 42.623 72.3247 42.623C72.4548 42.623 72.715 42.623 72.845 42.7578V42.623C72.845 42.3532 72.715 42.2183 72.3247 42.2183C72.1946 42.2183 71.9345 42.2183 71.6743 42.3532L71.5442 41.9486C71.8044 41.8137 72.1946 41.6788 72.4548 41.6788C72.715 41.6788 72.9751 41.8137 73.1052 41.9486C73.3654 42.0834 73.3654 42.3532 73.3654 42.623V43.9717H72.845V43.7019C72.715 43.9717 72.4548 44.1066 72.1946 44.1066Z" fill="#0057C2"/>
<path d="M74.9207 43.4322L75.441 41.6788H75.9614L75.0508 44.1066C75.0508 44.3763 74.9207 44.5112 74.7906 44.6461C74.6606 44.6461 74.5305 44.7809 74.4004 44.7809C74.1402 44.7809 74.0101 44.6461 73.8801 44.6461L74.0101 44.2414C74.1402 44.2414 74.2703 44.2414 74.2703 44.2414C74.3571 44.2414 74.4437 44.2414 74.5305 44.2414C74.5305 44.2414 74.5305 44.1066 74.6606 43.9717L73.75 41.6788H74.2703L74.9207 43.4322Z" fill="#0057C2"/>
<path d="M77.2751 44.1066C77.0149 44.1066 76.7547 43.9717 76.4946 43.7019C76.2344 43.567 76.2344 43.1624 76.2344 42.8927C76.2344 42.4881 76.2344 42.2183 76.4946 42.0834C76.7547 41.8137 77.0149 41.6788 77.2751 41.6788C77.6653 41.6788 77.9255 41.8137 78.1856 42.0834L77.9255 42.4881C77.6653 42.2183 77.5352 42.0834 77.2751 42.0834C77.145 42.0834 77.0149 42.2183 76.8848 42.3532C76.7547 42.4881 76.6247 42.623 76.6247 42.8927C76.6247 43.0276 76.7547 43.2973 76.8848 43.4322C77.0149 43.567 77.145 43.567 77.4051 43.567C77.5352 43.567 77.7954 43.567 77.9255 43.2973L78.1856 43.7019C78.0556 43.8368 77.9255 43.8368 77.7954 43.9717C77.6653 44.1066 77.5352 44.1066 77.2751 44.1066Z" fill="#0057C2"/>
<path d="M79.4809 43.7019C79.6109 43.7019 79.741 43.7019 79.8711 43.567C80.0012 43.4322 80.1313 43.2973 80.1313 43.1624V43.0276C79.8711 43.0276 79.741 42.8927 79.6109 42.8927C79.3508 42.8927 79.2207 43.0276 79.2207 43.0276C79.1339 43.1175 79.0906 43.2074 79.0906 43.2973C79.0906 43.4322 79.0906 43.567 79.2207 43.567C79.2207 43.7019 79.3508 43.7019 79.4809 43.7019ZM79.3508 44.1066C79.0906 44.1066 78.9605 43.9717 78.8305 43.8368C78.5703 43.7019 78.5703 43.567 78.5703 43.4322V43.2973C78.5703 43.1624 78.5703 42.8927 78.8305 42.7578C78.9605 42.623 79.2207 42.623 79.4809 42.623C79.6109 42.623 79.8711 42.623 80.0012 42.7578V42.623C80.0012 42.3532 79.8711 42.2183 79.4809 42.2183C79.3508 42.2183 79.0906 42.2183 78.8305 42.3532L78.7004 41.9486C78.9605 41.8137 79.3508 41.6788 79.6109 41.6788C79.8711 41.6788 80.1313 41.8137 80.2614 41.9486C80.5215 42.0834 80.5215 42.3532 80.5215 42.623V43.9717H80.0012V43.7019C79.8711 43.9717 79.6109 44.1066 79.3508 44.1066Z" fill="#0057C2"/>
<path d="M81.1719 43.9717V41.6788H81.6922V42.0834C81.8223 41.8137 82.0825 41.6788 82.3426 41.6788C82.6028 41.6788 82.8629 41.8137 82.993 41.9486C83.1231 42.0834 83.1231 42.3532 83.1231 42.623V43.9717H82.6028V42.7579C82.6028 42.4881 82.6028 42.3532 82.4727 42.3532C82.4727 42.2183 82.3426 42.2183 82.2125 42.2183C82.0825 42.2183 81.9524 42.2183 81.8223 42.3532C81.6922 42.3532 81.6922 42.4881 81.6922 42.7579V43.9717H81.1719Z" fill="#0057C2"/>
<path d="M87.5372 43.1608C87.5372 42.8911 87.277 42.7562 86.8868 42.7562H86.1063V43.5655H87.0168C87.1469 43.5655 87.277 43.5655 87.4071 43.4306C87.5372 43.4306 87.5372 43.2957 87.5372 43.1608ZM87.4071 41.8121C87.4071 41.6772 87.277 41.6772 87.277 41.5423C87.1469 41.5423 87.0168 41.4075 86.8868 41.4075H86.1063V42.2166H86.7567C87.0168 42.2166 87.1469 42.2166 87.277 42.2166C87.277 42.0819 87.4071 41.947 87.4071 41.8121ZM85.5859 43.97V41.0028H86.8868C87.277 41.0028 87.5372 41.0028 87.6672 41.2726C87.7973 41.4075 87.9274 41.5423 87.9274 41.8121C87.9274 42.0819 87.7973 42.3515 87.4071 42.4864C87.6672 42.4864 87.7973 42.6213 87.9274 42.7562C87.9274 42.8911 88.0575 43.0259 88.0575 43.1608C88.0575 43.4306 87.9274 43.7002 87.7973 43.8351C87.5372 43.97 87.277 43.97 87.0168 43.97H85.5859Z" fill="#0057C2"/>
<path d="M88.9813 42.7578H90.152C90.0219 42.4881 90.0219 42.3532 89.8918 42.2183C89.8918 42.2183 89.7618 42.0834 89.5016 42.0834C89.3715 42.0834 89.2414 42.2183 89.1113 42.2183C89.1113 42.3532 88.9813 42.4881 88.9813 42.7578ZM89.6317 44.1066C89.2414 44.1066 88.9813 43.9717 88.7211 43.7019C88.591 43.567 88.4609 43.2973 88.4609 42.8927C88.4609 42.4881 88.591 42.2183 88.7211 42.0834C88.9813 41.8137 89.2414 41.6788 89.5016 41.6788C89.8918 41.6788 90.152 41.8137 90.2821 42.0834C90.5422 42.2183 90.6723 42.623 90.6723 42.8927L90.5422 43.0276H88.9813C88.9813 43.2973 89.1113 43.4322 89.2414 43.567C89.2414 43.567 89.5016 43.7019 89.6317 43.7019C89.7618 43.7019 90.0219 43.567 90.152 43.4322L90.5422 43.7019C90.2821 43.9717 90.0219 44.1066 89.6317 44.1066Z" fill="#0057C2"/>
<path d="M91.9676 43.4322L92.4879 41.6788H93.1383L92.2278 44.1066C92.0977 44.3763 91.9676 44.5112 91.8375 44.6461C91.8375 44.6461 91.7074 44.7809 91.4473 44.7809C91.3172 44.7809 91.057 44.6461 90.927 44.6461L91.057 44.2414C91.1871 44.2414 91.3172 44.2414 91.4473 44.2414H91.5774C91.5774 44.2414 91.7074 44.1066 91.7074 43.9717L90.7969 41.6788H91.3172L91.9676 43.4322Z" fill="#0057C2"/>
<path d="M93.5234 43.9717V41.6788H94.0437V42.0834C94.1738 41.8137 94.4339 41.6788 94.6941 41.6788C94.9543 41.6788 95.2144 41.8137 95.3445 41.9486C95.4746 42.0834 95.4746 42.3532 95.4746 42.623V43.9717H94.9543V42.7579C94.9543 42.4881 94.9543 42.3532 94.8242 42.3532C94.8242 42.2183 94.6941 42.2183 94.564 42.2183C94.4339 42.2183 94.3039 42.2183 94.1738 42.3532C94.0437 42.3532 94.0437 42.4881 94.0437 42.7579V43.9717H93.5234Z" fill="#0057C2"/>
<path d="M97.6988 43.0276H96.5281C96.5281 43.1624 96.5281 43.2973 96.6582 43.4322C96.7882 43.567 96.9183 43.7019 97.0484 43.7019C97.1785 43.7019 97.3086 43.567 97.4386 43.4322C97.5687 43.4322 97.5687 43.1624 97.6988 43.0276ZM97.0484 41.6788C97.3086 41.6788 97.5687 41.8137 97.8289 41.9486C98.0891 42.2183 98.2191 42.4881 98.2191 42.8927C98.2191 43.1624 98.0891 43.567 97.8289 43.7019C97.6988 43.9717 97.4386 44.1066 97.0484 44.1066C96.7882 44.1066 96.5281 43.9717 96.2679 43.7019C96.1378 43.4322 96.0078 43.1624 96.0078 42.8927C96.0078 42.8028 96.0078 42.7578 96.0078 42.7578H97.6988C97.5687 42.4881 97.5687 42.3532 97.4386 42.2183C97.3086 42.2183 97.1785 42.0834 97.0484 42.0834C96.7882 42.0834 96.5281 42.2183 96.398 42.3532L96.1378 42.0834C96.398 41.8137 96.6582 41.6788 97.0484 41.6788Z" fill="#0057C2"/>
<path d="M98.7344 40.8696H99.2548V43.9716H98.7344V40.8696Z" fill="#0057C2"/>
<path d="M100.283 41.6788L100.804 42.4881L101.324 41.6788H101.844L101.064 42.8927L101.844 43.9717H101.324L100.804 43.1624L100.153 43.9717H99.6328L100.413 42.8927L99.6328 41.6788H100.283Z" fill="#0057C2"/>
<path d="M103.028 43.7019C103.158 43.7019 103.288 43.7019 103.418 43.567C103.548 43.4322 103.678 43.2973 103.678 43.1624V43.0276C103.418 43.0276 103.288 42.8927 103.158 42.8927C102.898 42.8927 102.768 43.0276 102.768 43.0276C102.681 43.1175 102.637 43.2074 102.637 43.2973C102.637 43.4322 102.637 43.567 102.768 43.567C102.768 43.7019 102.898 43.7019 103.028 43.7019ZM102.898 44.1066C102.637 44.1066 102.507 43.9717 102.377 43.8368C102.117 43.7019 102.117 43.567 102.117 43.4322V43.2973C102.117 43.1624 102.117 42.8927 102.377 42.7578C102.507 42.623 102.768 42.623 103.028 42.623C103.288 42.623 103.418 42.623 103.678 42.7578V42.623C103.678 42.3532 103.418 42.2183 103.028 42.2183C102.898 42.2183 102.637 42.2183 102.377 42.3532L102.247 41.9486C102.637 41.8137 102.898 41.6788 103.158 41.6788C103.418 41.6788 103.678 41.8137 103.808 41.9486C104.068 42.0834 104.068 42.3532 104.068 42.623V43.9717H103.548V43.7019C103.418 43.9717 103.158 44.1066 102.898 44.1066Z" fill="#0057C2"/>
<path d="M104.711 40.8696H105.231V43.9716H104.711V40.8696Z" fill="#0057C2"/>
<path d="M106.929 43.567C107.189 43.567 107.319 43.567 107.449 43.4322C107.579 43.2973 107.579 43.1624 107.579 42.8927C107.579 42.623 107.579 42.4881 107.449 42.3532C107.319 42.2183 107.189 42.0834 106.929 42.0834C106.799 42.0834 106.668 42.2183 106.538 42.3532C106.408 42.4881 106.278 42.623 106.278 42.8927C106.278 43.1624 106.408 43.2973 106.538 43.4322C106.668 43.567 106.799 43.567 106.929 43.567ZM107.579 44.7809V43.7019C107.449 43.9717 107.189 44.1066 106.798 44.1066C106.538 44.1066 106.278 43.9717 106.148 43.7019C105.888 43.567 105.758 43.2973 105.758 42.8927C105.758 42.4881 105.888 42.2183 106.148 41.9486C106.278 41.8137 106.538 41.6788 106.798 41.6788C107.189 41.6788 107.449 41.8137 107.579 42.0834V41.6788H108.099V44.7809H107.579Z" fill="#0057C2"/>
<path d="M112.389 43.1608C112.389 42.8911 112.258 42.7562 111.868 42.7562H110.958V43.5655H111.868C111.998 43.5655 112.129 43.5655 112.258 43.4306C112.389 43.4306 112.389 43.2957 112.389 43.1608ZM112.258 41.8121C112.258 41.7221 112.216 41.6322 112.129 41.5423C111.998 41.5423 111.868 41.4075 111.739 41.4075H110.958V42.2166H111.739C111.868 42.2166 111.998 42.2166 112.129 42.2166C112.258 42.0819 112.258 41.947 112.258 41.8121ZM110.438 43.97V41.0028H111.739C112.129 41.0028 112.389 41.0028 112.518 41.2726C112.649 41.4075 112.779 41.5423 112.779 41.8121C112.779 42.0819 112.649 42.3515 112.389 42.4864C112.518 42.4864 112.649 42.6213 112.779 42.7562C112.909 42.8911 112.909 43.0259 112.909 43.1608C112.909 43.4306 112.779 43.7002 112.649 43.8351C112.389 43.97 112.129 43.97 111.868 43.97H110.438Z" fill="#0057C2"/>
<path d="M114.208 43.7019C114.468 43.7019 114.598 43.7019 114.598 43.567C114.729 43.4322 114.858 43.2973 114.858 43.1624V43.0276C114.729 43.0276 114.468 42.8927 114.338 42.8927C114.208 42.8927 114.077 43.0276 113.948 43.0276C113.861 43.1175 113.817 43.2074 113.817 43.2973C113.817 43.4322 113.817 43.567 113.948 43.567C113.948 43.7019 114.077 43.7019 114.208 43.7019ZM114.077 44.1066C113.817 44.1066 113.688 43.9717 113.557 43.8368C113.428 43.7019 113.297 43.567 113.297 43.4322V43.2973C113.297 43.1624 113.428 42.8927 113.557 42.7578C113.688 42.623 113.948 42.623 114.208 42.623C114.468 42.623 114.598 42.623 114.858 42.7578V42.623C114.858 42.3532 114.598 42.2183 114.208 42.2183C114.077 42.2183 113.817 42.2183 113.688 42.3532L113.557 41.9486C113.817 41.8137 114.077 41.6788 114.338 41.6788C114.729 41.6788 114.858 41.8137 115.118 41.9486C115.249 42.0834 115.249 42.3532 115.249 42.623V43.9717H114.858V43.7019C114.598 43.9717 114.338 44.1066 114.077 44.1066Z" fill="#0057C2"/>
<path d="M115.906 43.9717V41.6788H116.427V42.0834C116.687 41.8137 116.816 41.6788 117.077 41.6788C117.337 41.6788 117.597 41.8137 117.728 41.9486C117.857 42.0834 117.988 42.3532 117.988 42.623V43.9717H117.467V42.7579C117.467 42.4881 117.337 42.3532 117.337 42.3532C117.207 42.2183 117.077 42.2183 116.947 42.2183C116.816 42.2183 116.687 42.2183 116.556 42.3532C116.427 42.3532 116.427 42.4881 116.427 42.7579V43.9717H115.906Z" fill="#0057C2"/>
<path d="M118.5 43.9716V40.8696H119.02V42.7578L119.931 41.6789H120.581L119.67 42.6229L120.581 43.9716H120.06L119.41 43.0276L119.02 43.4322V43.9716H118.5Z" fill="#0057C2"/>
<path d="M120.969 41.6788H121.489V43.9717H120.969V41.6788Z" fill="#0057C2"/>
<path d="M169.241 20.9075C168.981 21.7168 168.852 22.7957 168.852 24.1445C168.852 25.3583 168.981 26.4373 169.241 27.2465C169.632 28.0558 170.022 28.7301 170.542 29.1348C171.063 29.5394 171.583 29.8092 172.233 29.8092C172.753 29.8092 173.274 29.5394 173.794 29.1348C174.315 28.7301 174.835 28.0558 175.095 27.2465C175.485 26.4373 175.616 25.3583 175.616 24.1445C175.616 22.7957 175.485 21.7168 175.095 20.9075C174.835 20.0983 174.315 19.4239 173.794 19.0193C173.274 18.6146 172.753 18.345 172.233 18.345C171.583 18.345 171.063 18.6146 170.542 19.0193C170.022 19.4239 169.632 20.0983 169.241 20.9075Z" fill="#0057C2"/>
<path d="M157.264 14.0303C158.305 14.5698 159.086 15.2442 159.735 16.1883C160.256 17.1324 160.516 18.0766 160.516 19.0206C160.516 20.2345 160.256 21.0438 159.606 21.8529C158.955 22.5274 158.174 23.0669 157.264 23.4714C158.305 23.8761 159.215 24.5505 159.996 25.3597C160.776 26.3038 161.166 27.3828 161.166 28.5966C161.166 29.8104 160.776 30.8895 160.256 31.8336C159.606 32.7777 158.695 33.5869 157.524 34.1265C156.354 34.666 154.922 34.9356 153.362 34.9356C151.801 34.9356 150.37 34.666 148.939 33.9916C147.638 33.3172 146.467 32.508 145.687 31.5638L148.809 28.1921C149.33 28.7315 149.85 29.1361 150.5 29.4059C151.281 29.8104 151.93 29.9453 152.711 29.9453C153.362 29.9453 153.752 29.8104 154.142 29.6757C154.533 29.5408 154.793 29.271 155.053 29.0013C155.182 28.7315 155.313 28.4617 155.313 28.0572C155.313 27.6525 155.182 27.3828 155.053 27.113C154.793 26.8433 154.533 26.5735 154.142 26.4387C153.752 26.1689 153.362 26.1689 152.711 26.1689H150.76V21.5833H152.711C153.231 21.5833 153.622 21.4484 153.883 21.3135C154.272 21.1786 154.533 21.0438 154.662 20.774C154.793 20.5042 154.922 20.2345 154.922 19.8299C154.922 19.4253 154.793 19.1555 154.662 18.8858C154.533 18.616 154.272 18.4811 153.883 18.2113C153.622 18.0766 153.231 18.0766 152.711 18.0766C152.191 18.0766 151.541 18.2113 150.89 18.4811C150.37 18.8857 149.85 19.1555 149.459 19.695L146.338 16.3232C147.117 15.379 148.158 14.7047 149.459 14.1652C150.629 13.4908 151.93 13.2211 153.492 13.2211C154.922 13.2211 156.094 13.4908 157.264 14.0303ZM176.516 14.5698C177.947 15.5139 178.987 16.7277 179.768 18.3462C180.548 20.0996 180.939 21.9878 180.939 24.1458C180.939 26.1689 180.548 28.0572 179.768 29.8104C178.987 31.4289 177.947 32.6429 176.516 33.5869C175.215 34.5311 173.784 34.9356 172.223 34.9356C170.663 34.9356 169.102 34.5311 167.801 33.5869C166.5 32.6429 165.459 31.4289 164.549 29.8104C163.768 28.0572 163.378 26.1689 163.378 24.1458C163.378 21.9878 163.768 20.0996 164.549 18.3462C165.459 16.7277 166.5 15.5139 167.801 14.5698C169.102 13.6257 170.663 13.2211 172.223 13.2211C173.784 13.2211 175.215 13.6257 176.516 14.5698ZM188.484 14.3001C189.004 14.8396 189.134 15.379 189.134 16.1883C189.134 16.8626 189.004 17.537 188.484 18.0766C187.964 18.4811 187.313 18.7509 186.532 18.7509C185.751 18.7509 185.101 18.4811 184.581 18.0766C184.061 17.537 183.8 16.8626 183.8 16.1883C183.8 15.379 184.061 14.8396 184.581 14.3001C185.101 13.7606 185.751 13.4908 186.532 13.4908C187.313 13.4908 187.964 13.7606 188.484 14.3001ZM188.874 34.3962H184.061V20.2345H188.874V34.3962ZM197.459 34.3962H192.646V13.7606H197.459V34.3962ZM206.435 3.10559C206.435 3.10559 161.297 7.69128 132.289 6.6123V41.1399C132.289 41.1399 148.418 41.8142 152.582 41.1399V49.5019C152.582 49.5019 186.402 49.5019 218.532 45.0512L216.711 9.04001L207.996 11.4677L206.435 3.10559Z" fill="#0057C2"/>
</g>
<defs>
<clipPath id="clip0_1501_119904">
<rect width="220" height="57.8947" fill="white" transform="translate(0 0.0526123)"/>
</clipPath>
</defs>
</svg>
