<svg width="220" height="40" viewBox="0 0 220 40" fill="none" xmlns="http://www.w3.org/2000/svg">
<g clip-path="url(#clip0_1501_119473)">
<path d="M54.3694 19.7932L65.2364 31.1739V31.4301H59.9794L50.5337 21.4355V31.4301H46.2734V8.86475H50.5283V18.4062L59.1082 8.86475H64.3948V8.98795L54.3694 19.7932Z" fill="#6A062B"/>
<path d="M76.5207 23.9871C76.5207 21.9939 75.16 19.8468 72.9853 19.8468C70.8106 19.8468 69.4807 21.9972 69.4807 23.9871C69.4807 25.977 70.8128 28.1671 72.9897 28.1671C75.1666 28.1671 76.5251 25.9891 76.5251 23.9871M80.275 31.4254H76.095V30.0635H76.0356C75.546 30.6525 74.9305 31.1242 74.2346 31.444C73.5386 31.7638 72.7798 31.9236 72.014 31.9116C67.6624 31.9116 65.1797 27.9516 65.1797 23.9289C65.1797 19.9964 67.6921 16.0957 71.9535 16.0957C72.7373 16.0937 73.5124 16.2596 74.2268 16.5821C74.9411 16.9047 75.5782 17.3765 76.095 17.9657V16.5742H80.275V31.4254Z" fill="#6A062B"/>
<path d="M94.9099 23.9876C94.9099 21.9944 93.58 19.8472 91.402 19.8472C89.224 19.8472 87.8952 21.9944 87.8952 23.9876C87.8952 25.9808 89.2273 28.1676 91.402 28.1676C93.5767 28.1676 94.9099 25.9896 94.9099 23.9876ZM88.3187 17.9376C88.8334 17.3555 89.4662 16.8898 90.175 16.5715C90.8839 16.2532 91.6524 16.0897 92.4294 16.0918C96.6336 16.0918 99.2043 20.0254 99.2043 23.926C99.2043 27.9751 96.7249 31.9098 92.3381 31.9098C91.5777 31.9247 90.8243 31.7629 90.1371 31.437C89.45 31.1112 88.8478 30.6302 88.3781 30.0321H88.3187V39.3447H84.0859V16.5747H88.3187V17.9376Z" fill="#6A062B"/>
<path d="M106.369 31.4278H102.135V16.5778H106.369V31.4278ZM106.763 10.355C106.762 10.8513 106.615 11.3365 106.339 11.7491C106.063 12.1617 105.671 12.4833 105.213 12.6732C104.754 12.8631 104.25 12.9127 103.763 12.8159C103.276 12.7191 102.829 12.4802 102.478 12.1293C102.127 11.7784 101.888 11.3313 101.791 10.8446C101.694 10.3578 101.743 9.85325 101.933 9.3946C102.122 8.93594 102.444 8.54378 102.856 8.26774C103.269 7.9917 103.754 7.8442 104.25 7.84376C104.58 7.84275 104.907 7.90699 105.213 8.03282C105.518 8.15866 105.795 8.34353 106.029 8.57692C106.262 8.8103 106.447 9.08757 106.573 9.39272C106.699 9.69787 106.763 10.0249 106.763 10.355Z" fill="#6A062B"/>
<path d="M115.071 31.429H110.844V20.1529H109.391V16.5823H110.844V11.5663H115.074V16.5823H117.677V20.1529H115.074L115.071 31.429Z" fill="#6A062B"/>
<path d="M129.655 23.9871C129.655 21.9939 128.294 19.8468 126.118 19.8468C123.942 19.8468 122.609 21.9939 122.609 23.9871C122.609 25.9803 123.94 28.1671 126.118 28.1671C128.296 28.1671 129.655 25.9891 129.655 23.9871ZM133.406 31.4254H129.226V30.0635H129.167C128.678 30.6523 128.063 31.124 127.367 31.4438C126.671 31.7636 125.912 31.9235 125.147 31.9116C120.793 31.9116 118.312 27.9516 118.312 23.9289C118.312 19.9964 120.825 16.0957 125.086 16.0957C125.87 16.0937 126.645 16.2596 127.359 16.5822C128.073 16.9048 128.709 17.3765 129.226 17.9657V16.5742H133.406V31.4254Z" fill="#6A062B"/>
<path d="M141.445 5.79236H137.211V31.429H141.445V5.79236Z" fill="#6A062B"/>
<path d="M180.642 23.9871C180.642 21.9939 179.282 19.8468 177.107 19.8468C174.932 19.8468 173.6 21.9939 173.6 23.9871C173.6 25.9803 174.93 28.1671 177.107 28.1671C179.284 28.1671 180.642 25.9891 180.642 23.9871ZM184.392 31.4254H180.22V30.0635H180.161C179.671 30.652 179.055 31.1235 178.359 31.4432C177.663 31.763 176.905 31.923 176.139 31.9116C171.783 31.9116 169.305 27.9516 169.305 23.9289C169.305 19.9964 171.816 16.0957 176.077 16.0957C176.861 16.0936 177.637 16.2594 178.351 16.5819C179.066 16.9045 179.703 17.3763 180.22 17.9657V16.5742H184.392V31.4254Z" fill="#6A062B"/>
<path d="M192.428 17.9441H192.49C192.926 17.3342 193.509 16.8449 194.186 16.522C194.863 16.1992 195.61 16.0534 196.358 16.0983C200.351 16.0983 201.499 18.9143 201.499 22.3595V31.4279H197.265V23.5662C197.265 21.7831 197.356 19.4885 194.97 19.4885C192.46 19.4885 192.428 22.299 192.428 24.0843V31.4279H188.195V16.5779H192.428V17.9441Z" fill="#6A062B"/>
<path d="M209.51 22.0262H209.569L214.014 16.5833H219.514L213.252 23.1162L219.995 31.4267H214.432L209.565 25.1117H209.51V31.4267H205.273V5.79016H209.51V22.0262Z" fill="#6A062B"/>
<path d="M155.616 27.8616H158.397C160.786 27.8616 162.844 27.5568 162.844 24.5945C162.844 21.6322 160.424 21.5145 158.185 21.5145H155.616V27.8616ZM155.616 18.1243H158.006C160.182 18.1243 161.239 17.4918 161.239 15.129C161.239 12.8047 159.908 12.1986 158.034 12.1986H155.614L155.616 18.1243ZM151.172 8.62915H158.55C162.779 8.62915 165.382 10.2946 165.382 14.831C165.431 15.6734 165.275 16.5151 164.927 17.2841C164.58 18.0531 164.051 18.7264 163.386 19.2463C166.078 19.7281 167.284 22.4474 167.284 24.9598C167.284 29.4335 164.142 31.4288 159.999 31.4288H151.172V8.62915Z" fill="#6A062B"/>
<path d="M35.2 2.3999H0L17.6 19.9999L35.2 2.3999Z" fill="#CE3A36"/>
<path d="M35.2 37.5998H0L17.6 19.9998L35.2 37.5998Z" fill="#61132C"/>
<path d="M0 2.3999V37.5999L17.6 19.9999L0 2.3999Z" fill="#942031"/>
</g>
<defs>
<clipPath id="clip0_1501_119473">
<rect width="220" height="39.0632" fill="white" transform="translate(0 0.468384)"/>
</clipPath>
</defs>
</svg>
