<svg width="130" height="52" viewBox="0 0 130 52" fill="none" xmlns="http://www.w3.org/2000/svg">
<g clip-path="url(#clip0_1501_120056)">
<path d="M30.5363 19.4477C29.4549 18.4833 28.2027 17.6891 26.8082 17.0651C30.3656 8.78254 38.6186 3.30812 47.7539 3.30812C54.4702 3.30812 60.6742 6.20133 64.9715 11.1652H68.5574C63.7478 4.44271 56.0924 0.5 47.7539 0.5C36.9965 0.5 27.292 7.30756 23.6493 17.4055L23.1655 18.7386L25.1576 19.4194C26.4667 19.9583 27.662 20.6674 28.6581 21.5467C32.0162 24.4967 33.9514 28.723 33.9514 33.1479V33.3465C33.8945 41.7992 26.8936 48.6919 18.3275 48.6919C10.2452 48.6919 3.61427 42.5083 2.9028 34.6513H11.0705C11.725 38.0551 14.7417 40.6079 18.3275 40.6079C22.3971 40.6079 25.7268 37.3176 25.7268 33.233V32.8927C25.7268 28.8365 22.4256 25.5178 18.3275 25.5178H12.7211C12.8065 21.6035 13.8879 17.7458 15.9085 14.3988L17.1891 12.2714H4.18345V4.18743H28.9996V1.37931H1.33757V15.0795H12.3511C10.729 18.4833 9.90368 22.1991 9.90368 25.9716C9.90368 26.312 9.93214 26.936 9.93214 26.9928L10.0175 28.3259H18.356C20.8888 28.3259 22.9378 30.3682 22.9378 32.8927V33.233C22.9378 35.7575 20.8888 37.7998 18.356 37.7998C15.8231 37.7998 13.7741 35.7575 13.7741 33.233V31.8148H0V33.233C0 43.3026 8.22461 51.4716 18.3275 51.4716C28.3735 51.4716 36.5981 43.416 36.7404 33.46V33.1196C36.7688 27.9004 34.4921 22.9082 30.5363 19.4477Z" fill="#475ED0"/>
<path d="M62.8361 42.9622C58.7095 46.6496 53.3877 48.6919 47.7244 48.6919C43.7971 48.6919 39.9267 47.6707 36.5116 45.7419L35.1172 48.1813C38.9591 50.337 43.3133 51.5 47.7244 51.5C55.0953 51.5 61.9254 48.4082 66.7918 42.9622H62.8361Z" fill="#475ED0"/>
<path fill-rule="evenodd" clip-rule="evenodd" d="M75.1283 21.5466V24.3263H72.7946V12.4131H75.1283V18.8519L78.0595 15.5049H80.9054L77.7749 18.937L80.9908 24.3263H78.2018L76.0959 20.5538L75.1283 21.5466ZM70.3187 18.2279V24.3263H67.9851V18.9654C67.9851 18.6534 67.9566 18.3981 67.8997 18.1428C67.8428 17.8875 67.7005 17.689 67.4728 17.4904C67.2452 17.3202 66.9037 17.2068 66.4483 17.2068C66.1068 17.2068 65.7938 17.2919 65.5092 17.4337C65.2246 17.5755 65.0254 17.8308 64.8546 18.1428C64.6839 18.4548 64.6269 18.8236 64.6269 19.249V24.298H62.2933V15.4765H64.5131V16.7813H64.5416C65.1392 15.7602 66.0499 15.2496 67.2167 15.2496C67.8143 15.2496 68.3266 15.3631 68.8104 15.59C69.2657 15.8169 69.6357 16.1573 69.9203 16.5827C70.1764 17.0649 70.3187 17.6039 70.3187 18.2279ZM57.7114 21.1778V20.0433C57.4553 20.2418 56.9431 20.412 56.1462 20.5255C55.8047 20.5822 55.5201 20.6673 55.3209 20.7524C55.0932 20.8375 54.9225 20.9793 54.7802 21.1495C54.6379 21.3197 54.581 21.575 54.581 21.8586C54.581 22.2273 54.6948 22.4826 54.9225 22.6528C55.1501 22.823 55.4063 22.9081 55.6624 22.9081C56.0039 22.9081 56.3454 22.823 56.6585 22.6812C56.9715 22.5394 57.2276 22.3408 57.4269 22.0855C57.5976 21.8302 57.7114 21.5182 57.7114 21.1778ZM59.9881 17.8308V22.5961C59.9881 23.0783 60.0451 23.4187 60.1304 23.5889C60.2158 23.7874 60.3581 23.9009 60.5004 23.9576V24.298H57.996C57.8822 23.9576 57.8253 23.6172 57.7684 23.2485C57.3984 23.6456 57 23.9576 56.5731 24.1845C56.1462 24.4114 55.6055 24.5249 54.894 24.5249C54.4387 24.5249 53.9833 24.4398 53.5849 24.2413C53.1865 24.0711 52.845 23.759 52.5888 23.3903C52.3327 22.9932 52.2189 22.511 52.2189 21.9437C52.2189 21.3764 52.3327 20.9226 52.5604 20.5255C52.7881 20.1283 53.0727 19.8163 53.4711 19.5894C53.841 19.3625 54.2964 19.2207 54.8086 19.1356L56.9146 18.8236C57.4553 18.7385 57.7399 18.5115 57.7399 18.1144C57.7399 17.689 57.5976 17.4053 57.313 17.2919C57.0284 17.15 56.6585 17.0933 56.2316 17.0933C55.7193 17.0933 55.3494 17.2068 55.1786 17.4337C54.9794 17.6606 54.8656 17.9726 54.8086 18.313H52.5604C52.6458 17.462 52.8734 16.8097 53.2719 16.3558C53.6418 15.902 54.1256 15.59 54.6664 15.4481C55.2071 15.3063 55.8332 15.2212 56.5446 15.2212C57.0569 15.2212 57.5976 15.278 58.1383 15.4198C58.679 15.5616 59.1344 15.8169 59.5044 16.1856C59.7889 16.6678 59.9881 17.1784 59.9881 17.8308ZM43.1405 14.4837V17.0933H46.0718C46.584 17.0933 47.0109 16.9798 47.3524 16.7529C47.6655 16.526 47.8362 16.214 47.8362 15.7602C47.8362 15.3063 47.6939 14.9659 47.3809 14.7674C47.0678 14.5688 46.6125 14.4837 46.0149 14.4837H43.1405ZM43.1405 19.1072V22.2841H46.2141C47.4947 22.2841 48.1208 21.6884 48.1208 20.5538C48.1208 20.0716 47.9501 19.7029 47.6086 19.476C47.267 19.249 46.8402 19.1072 46.3279 19.1072H43.1405ZM40.75 24.3547V12.4415H46.5556C47.4663 12.4415 48.1777 12.6117 48.7469 12.9237C49.2876 13.2357 49.686 13.6328 49.9137 14.0866C50.1414 14.5405 50.2552 15.0227 50.2552 15.5049C50.2552 16.2424 50.1129 16.7813 49.8283 17.1217C49.5438 17.462 49.2022 17.7457 48.7754 17.9443C49.9991 18.3981 50.6252 19.3625 50.6252 20.8375C50.6252 21.3197 50.5398 21.7451 50.3406 22.1706C50.1698 22.5961 49.9137 22.9648 49.5722 23.2768C49.3161 23.5321 49.0315 23.7307 48.7754 23.8725C48.5192 24.0143 48.1493 24.1278 47.6655 24.2129C47.2101 24.298 46.584 24.3263 45.7872 24.3263H40.75V24.3547Z" fill="#475ED0"/>
<path fill-rule="evenodd" clip-rule="evenodd" d="M127.208 36.2112V35.0766C126.952 35.2752 126.44 35.4454 125.614 35.5588C125.273 35.6156 124.988 35.7007 124.789 35.7858C124.561 35.8709 124.391 36.0127 124.248 36.1829C124.106 36.3531 124.049 36.6083 124.049 36.892C124.049 37.2607 124.163 37.516 124.391 37.6862C124.618 37.8564 124.875 37.9415 125.131 37.9415C125.472 37.9415 125.814 37.8564 126.127 37.7146C126.44 37.5727 126.696 37.3742 126.895 37.1189C127.123 36.8636 127.208 36.5516 127.208 36.2112ZM129.485 32.8642V37.6295C129.485 38.1117 129.542 38.4521 129.627 38.6222C129.712 38.8208 129.855 38.9343 129.997 38.991V39.3314H127.493C127.379 38.991 127.322 38.6506 127.265 38.2819C126.895 38.679 126.497 38.991 126.07 39.2179C125.643 39.4448 125.102 39.5583 124.391 39.5583C123.935 39.5583 123.48 39.4732 123.082 39.2746C122.683 39.1044 122.342 38.7924 122.086 38.4237C121.829 38.0266 121.716 37.5444 121.716 36.9771C121.716 36.4098 121.829 35.9559 122.057 35.5588C122.285 35.1617 122.569 34.8497 122.968 34.6228C123.338 34.3959 123.793 34.2541 124.305 34.169L126.411 33.8569C126.952 33.7719 127.237 33.5449 127.237 33.1478C127.237 32.7224 127.094 32.4387 126.81 32.3252C126.525 32.1834 126.155 32.1267 125.728 32.1267C125.216 32.1267 124.846 32.2402 124.675 32.4671C124.476 32.694 124.362 33.006 124.305 33.3464H122.057C122.142 32.4954 122.37 31.843 122.769 31.3892C123.139 30.9354 123.622 30.6234 124.163 30.4815C124.704 30.3397 125.33 30.2546 126.041 30.2546C126.554 30.2546 127.094 30.3113 127.635 30.4532C128.176 30.595 128.631 30.8503 129.001 31.219C129.314 31.6729 129.485 32.2118 129.485 32.8642ZM115.227 36.58V39.3597H112.893V27.4465H115.227V33.8853L118.158 30.5383H121.004L117.874 33.9704L121.089 39.3597H118.301L116.195 35.5872L115.227 36.58ZM110.36 29.4888H108.027V27.333H110.36V29.4888ZM108.027 30.5383H110.36V39.3597H108.027V30.5383ZM105.466 39.3597H103.132V27.4465H105.466V39.3597ZM94.9356 27.4749V31.7012H94.9641C95.5617 30.7935 96.4155 30.3113 97.5254 30.3113C98.0092 30.3113 98.493 30.3964 98.9198 30.595C99.3752 30.7935 99.7451 31.0772 100.087 31.4459C100.428 31.8147 100.684 32.2969 100.884 32.8642C101.083 33.4315 101.168 34.0839 101.168 34.8497C101.168 35.7007 101.026 36.4665 100.77 37.204C100.514 37.9415 100.087 38.5088 99.5175 38.9343C98.9483 39.3597 98.2653 39.5866 97.44 39.5866C96.2447 39.5866 95.3909 39.1328 94.8787 38.2535H94.8502V39.3597H92.5735V27.4465H94.9356V27.4749ZM98.806 35.0199C98.806 34.2541 98.6353 33.6017 98.3222 33.0911C98.0092 32.5805 97.4969 32.3252 96.8139 32.3252C95.4763 32.3252 94.8218 33.2613 94.8218 35.1617C94.8218 35.8709 94.9925 36.4949 95.334 36.9771C95.6755 37.4593 96.1878 37.7146 96.8708 37.7146C97.3261 37.7146 97.6961 37.5727 97.9807 37.2891C98.2653 37.0054 98.4645 36.6651 98.5783 36.268C98.7491 35.8425 98.806 35.417 98.806 35.0199ZM90.2399 30.5383V39.3597H88.0201V38.1117H87.9916C87.7355 38.5939 87.3656 38.9626 86.9102 39.1895C86.4549 39.4448 85.9142 39.5583 85.3165 39.5583C84.7189 39.5583 84.2066 39.4448 83.7513 39.2179C83.2959 38.991 82.9544 38.6222 82.6983 38.14C82.4422 37.6578 82.3283 37.0338 82.3283 36.3247V30.5099H84.662V35.9843C84.662 37.0622 85.1742 37.6011 86.1703 37.6011C86.6541 37.6011 87.0525 37.4309 87.4225 37.1473C87.7924 36.8353 87.9632 36.3247 87.9632 35.6156V30.5383H90.2399ZM74.0184 30.5383V31.8147H74.0468C74.3314 31.3608 74.6729 30.9921 75.0713 30.7084C75.4698 30.4248 76.0105 30.283 76.6935 30.283C77.1773 30.283 77.6611 30.3681 78.088 30.5666C78.5433 30.7652 78.9133 31.0488 79.2548 31.4176C79.5963 31.7863 79.8809 32.2685 80.0516 32.8358C80.2508 33.4031 80.3362 34.0555 80.3362 34.8214C80.3362 35.6723 80.1939 36.4381 79.9378 37.1756C79.6817 37.9131 79.2548 38.4804 78.6856 38.9059C78.1164 39.3314 77.4334 39.5583 76.6081 39.5583C75.4698 39.5583 74.6445 39.1044 74.1037 38.1968H74.0753V42.7635H71.7417V30.5099H74.0184V30.5383ZM74.0184 35.1617C74.0184 35.8709 74.1891 36.4949 74.5306 36.9771C74.8721 37.4593 75.3844 37.7146 76.0674 37.7146C76.5227 37.7146 76.8927 37.5727 77.1773 37.2891C77.4619 37.0054 77.6611 36.6651 77.7749 36.268C77.8888 35.8709 77.9457 35.4454 77.9457 35.0483C77.9457 34.2824 77.7749 33.63 77.4619 33.1195C77.1488 32.6089 76.6366 32.3536 75.9536 32.3536C74.6729 32.3252 74.0184 33.2613 74.0184 35.1617ZM69.6357 33.2329H67.359C67.3021 32.8642 67.1598 32.5805 66.9606 32.382C66.7614 32.1834 66.3629 32.07 65.7937 32.07C64.8546 32.07 64.3708 32.3536 64.3708 32.9209C64.3708 33.2046 64.6839 33.4315 65.31 33.6017C65.936 33.7719 66.6191 33.9137 67.3305 34.0839C68.042 34.2541 68.6681 34.5093 69.1519 34.8781C69.6642 35.2468 69.9203 35.8141 69.9203 36.5516C69.9203 37.3458 69.7211 37.9698 69.2942 38.3953C68.8673 38.8492 68.355 39.1612 67.7859 39.3314C67.1882 39.5016 66.6191 39.5866 66.0499 39.5866C64.8831 39.5866 63.887 39.3597 63.0617 38.8775C62.2364 38.3953 61.8095 37.6295 61.7811 36.5516H64.1716C64.1716 37.4026 64.8261 37.8564 66.1068 37.8564C66.6475 37.8564 67.0175 37.7713 67.2452 37.5727C67.4728 37.3742 67.5867 37.1756 67.5867 36.9487C67.5867 36.6367 67.2452 36.3814 66.5906 36.2112C65.936 36.041 65.253 35.8709 64.57 35.729C63.887 35.5588 63.2894 35.3036 62.8056 34.9348C62.3218 34.5661 62.0656 33.9988 62.0656 33.2613C62.0656 32.7791 62.1795 32.3252 62.4071 31.8714C62.6348 31.4176 63.0048 31.0488 63.5455 30.7652C64.0862 30.4815 64.7692 30.3113 65.6515 30.3113C68.1558 30.3113 69.4934 31.2757 69.6357 33.2329ZM54.5241 34.0839H58.1383C58.0814 33.4315 57.8822 32.9776 57.5407 32.6656C57.1992 32.382 56.8008 32.2402 56.3454 32.2402C55.2924 32.2118 54.6663 32.8358 54.5241 34.0839ZM58.0529 36.7785H60.4435C60.1589 37.7713 59.6466 38.4804 58.9352 38.9343C58.2237 39.3881 57.4268 39.615 56.5446 39.615C55.9185 39.615 55.3209 39.5299 54.7802 39.3597C54.2395 39.1895 53.7841 38.9059 53.3857 38.5371C52.9873 38.1684 52.6742 37.6578 52.475 37.0338C52.2473 36.4098 52.162 35.6439 52.162 34.793C52.162 34.4242 52.2189 33.9988 52.3043 33.5166C52.3896 33.0344 52.5888 32.5522 52.8734 32.07C53.158 31.5878 53.5849 31.1623 54.1825 30.8219C54.7517 30.4815 55.4916 30.3113 56.4023 30.3113C56.8861 30.3113 57.3699 30.3964 57.8537 30.5099C58.3375 30.6517 58.7644 30.907 59.1913 31.2474C59.5897 31.5878 59.9312 32.0983 60.1874 32.7507C60.4435 33.4031 60.5573 34.1973 60.5573 35.1617V35.5872H54.4956C54.5241 35.9559 54.581 36.268 54.6948 36.58C54.7802 36.8636 54.9794 37.1473 55.2924 37.3742C55.6055 37.6295 56.0324 37.7429 56.6015 37.7429C56.9431 37.7429 57.2561 37.6578 57.5407 37.4876C57.7684 37.3175 57.9676 37.0622 58.0529 36.7785ZM43.1974 32.694H46.1287C46.7832 32.694 47.267 32.5522 47.5801 32.3252C47.8931 32.07 48.0354 31.6445 48.0354 31.0772C48.0354 30.6517 47.9216 30.3113 47.6655 29.9993C47.4093 29.6873 46.954 29.5171 46.2994 29.5171H43.1974V32.694ZM40.75 39.3597V27.4465H46.7832C47.7508 27.4465 48.5192 27.645 49.06 28.0138C49.6291 28.4109 49.9991 28.8364 50.2268 29.3753C50.426 29.8859 50.5398 30.3681 50.5398 30.8219C50.5398 31.4743 50.3691 32.07 50.056 32.5805C49.743 33.0911 49.2592 33.4598 48.69 33.6584C49.06 33.8286 49.3445 33.9988 49.5722 34.169C49.7714 34.3392 49.9422 34.6512 50.056 35.0199C50.1698 35.3886 50.2268 35.9559 50.2268 36.6651C50.2268 37.3458 50.2268 37.828 50.2552 38.0833C50.2837 38.367 50.3121 38.5655 50.3975 38.7073C50.4544 38.8492 50.5967 38.9626 50.7675 39.0193V39.3314H48.007C47.8362 38.7357 47.7508 37.9415 47.7508 36.9204C47.7508 36.2963 47.7224 35.8425 47.637 35.5588C47.5516 35.2468 47.3809 35.0483 47.1248 34.8781C46.8402 34.7363 46.4133 34.6512 45.8156 34.6512H43.2259V39.303H40.75V39.3597Z" fill="#475ED0"/>
</g>
<defs>
<clipPath id="clip0_1501_120056">
<rect width="130" height="51" fill="white" transform="translate(0 0.5)"/>
</clipPath>
</defs>
</svg>
