<svg width="220" height="60" viewBox="0 0 220 60" fill="none" xmlns="http://www.w3.org/2000/svg">
<g clip-path="url(#clip0_1501_120110)">
<path fill-rule="evenodd" clip-rule="evenodd" d="M0 29.9832L11.9573 18.0028L23.8809 29.9832L21.1939 32.7014H7.35573V37.3661L0 29.9832Z" fill="#8C8E8E"/>
<path fill-rule="evenodd" clip-rule="evenodd" d="M8.66406 19.5133V9.04309H25.5587V25.9901H21.7297L12.3923 16.6273L11.9557 16.1911L8.66406 19.5133Z" fill="#037759"/>
<path fill-rule="evenodd" clip-rule="evenodd" d="M8.66406 50.9236H19.0427L16.2213 48.1047L15.7511 47.6349L25.5587 37.8022V34.0101H8.66406V50.9236Z" fill="#037759"/>
<path fill-rule="evenodd" clip-rule="evenodd" d="M29.5252 59.6154L17.6016 47.635L29.5252 35.6547L32.2123 38.3393V52.2326H36.881L29.5252 59.6154Z" fill="#8C8E8E"/>
<path fill-rule="evenodd" clip-rule="evenodd" d="M50.4103 50.9237H33.5156V34.0103H37.311L46.6485 43.3395L47.1187 43.8093L47.5553 43.3395L50.4103 40.5206V50.9237Z" fill="#037759"/>
<path fill-rule="evenodd" clip-rule="evenodd" d="M59.045 29.9498L47.1213 41.9302L35.1641 29.9498L37.8511 27.2315H51.6893V22.5669L59.045 29.9498Z" fill="#8C8E8E"/>
<path fill-rule="evenodd" clip-rule="evenodd" d="M50.4103 9.04297V25.99H33.5156V22.1979L42.853 12.8351L43.2897 12.3653L42.853 11.8954L39.9981 9.04297H50.4103Z" fill="#037759"/>
<path fill-rule="evenodd" clip-rule="evenodd" d="M41.4849 12.3652L29.5276 24.3455L26.8406 21.6273V7.76764H22.1719L29.5276 0.384766L41.4849 12.3652Z" fill="#8C8E8E"/>
<path fill-rule="evenodd" clip-rule="evenodd" d="M73.8504 9.07606H67.1328V26.0232H71.2305V21.2243H72.4733C77.4778 21.2243 80.232 18.4054 80.232 15.0831C80.2487 14.2578 80.0922 13.4383 79.7724 12.6773C79.4526 11.9163 78.9767 11.2306 78.3754 10.6646C77.7741 10.0986 77.0608 9.66479 76.2814 9.39119C75.502 9.11758 74.6738 9.01024 73.8504 9.07606ZM76.1679 15.1837C76.1679 16.761 75.2611 18.1033 72.8092 18.1033H71.432V12.2642H73.3801C75.4961 12.2642 76.1679 13.5058 76.1679 15.1837Z" fill="#037759"/>
<path fill-rule="evenodd" clip-rule="evenodd" d="M97.5312 25.0838L98.6732 22.1642C100.103 22.6922 101.617 22.9538 103.14 22.936C105.189 22.936 106.096 22.2984 106.096 21.2581C106.096 18.5063 98.0687 19.2446 98.0687 13.5061C98.0687 10.1502 101.159 8.84147 104.148 8.84147C105.972 8.78887 107.782 9.18044 109.421 9.98245L108.246 12.8349C106.973 12.381 105.634 12.1428 104.282 12.1301C102.569 12.1301 102.032 12.7678 102.032 13.5061C102.032 15.7545 110.227 15.7544 110.227 21.1238C110.227 24.8488 106.667 26.2918 103.208 26.2918C101.242 26.4016 99.2818 25.9846 97.5312 25.0838Z" fill="#037759"/>
<path fill-rule="evenodd" clip-rule="evenodd" d="M112.352 9.10974H116.416V15.9557H123.066V9.10974H127.13V26.0232H123.066V19.0431H116.416V26.0232H112.352V9.10974Z" fill="#037759"/>
<path fill-rule="evenodd" clip-rule="evenodd" d="M134.317 9.07654H139.859L145.535 26.0236H141.337L139.725 21.057H134.418L132.839 26.0236H128.641L134.317 9.07654ZM137.071 11.5934L135.392 18.1038H138.751L137.071 11.5934Z" fill="#037759"/>
<path fill-rule="evenodd" clip-rule="evenodd" d="M85.481 9.07654H91.023L96.6993 26.0236H92.5009L90.8887 21.057H85.6154L84.0032 26.0236H79.8047L85.481 9.07654ZM88.2689 11.5934L86.5559 18.1038H89.9146L88.2689 11.5934Z" fill="#037759"/>
<path fill-rule="evenodd" clip-rule="evenodd" d="M189.868 36.2252V32.6345H185.971V36.2252H189.868ZM76.3745 50.9574C78.1034 51.0066 79.8254 50.7217 81.4462 50.1185L80.6065 47.1317C79.3903 47.4537 78.1365 47.6118 76.8783 47.6016C76.1512 47.6817 75.4154 47.6016 74.7226 47.3669C74.0298 47.1321 73.3969 46.7485 72.8686 46.243C72.3402 45.7375 71.9292 45.1224 71.6645 44.441C71.3997 43.7597 71.2878 43.0287 71.3364 42.2994C71.263 41.6145 71.3434 40.9218 71.5718 40.2719C71.8002 39.622 72.1709 39.0312 72.6568 38.5425C73.1427 38.0538 73.7315 37.6796 74.3805 37.4471C75.0294 37.2146 75.7221 37.1296 76.408 37.1984C77.7752 37.1839 79.1359 37.3878 80.4386 37.8025L81.4798 34.9165C79.874 34.2062 78.13 33.8623 76.3745 33.9098C75.1898 33.774 73.9896 33.9004 72.8592 34.28C71.7288 34.6595 70.6958 35.2829 69.8336 36.106C68.9713 36.9291 68.3009 37.9316 67.8699 39.0426C67.4388 40.1535 67.2577 41.3455 67.3394 42.5342C67.2722 47.9707 70.3623 50.9574 76.3745 50.9574ZM89.1378 50.9574C90.0393 51.034 90.9467 50.9129 91.7965 50.6027C92.6463 50.2925 93.418 49.8005 94.0577 49.1613C94.6975 48.5221 95.1898 47.7511 95.5003 46.902C95.8108 46.053 95.932 45.1464 95.8554 44.2457C95.9914 43.333 95.9115 42.4011 95.622 41.5247C95.3325 40.6484 94.8415 39.8521 94.1884 39.1996C93.5353 38.547 92.7383 38.0565 91.8612 37.7672C90.9841 37.478 90.0514 37.3981 89.1378 37.534C88.239 37.4691 87.3368 37.5981 86.4923 37.9124C85.6478 38.2268 84.8808 38.7191 84.2436 39.3557C83.6063 39.9924 83.1137 40.7586 82.7991 41.6024C82.4845 42.4461 82.3553 43.3477 82.4203 44.2457C82.2915 45.1572 82.3766 46.086 82.6686 46.959C82.9607 47.8319 83.4518 48.6252 84.1033 49.276C84.7547 49.9269 85.5485 50.4175 86.4223 50.7093C87.296 51.0011 88.2256 51.0861 89.1378 50.9574ZM86.6188 44.2457C86.6188 46.427 87.2569 47.7693 89.3394 47.7693C91.4218 47.7693 91.9257 46.3934 91.9257 44.2121C91.9257 42.0308 91.4218 40.6215 89.2722 40.6215C87.1226 40.6215 86.6188 42.2658 86.6188 44.2457ZM98.2066 50.5883H102.103V41.5611C102.993 41.13 103.968 40.9008 104.958 40.8899C106.268 40.8899 106.637 41.1919 106.637 42.9369V50.5883H110.466V42.6014C110.466 39.7154 110.197 37.534 106.234 37.534C104.714 37.6332 103.26 38.1954 102.069 39.1449V37.836H98.173L98.2066 50.5883ZM123.062 46.6955C123.062 50.0514 119.703 50.8904 117.419 50.8904C115.856 50.9278 114.296 50.747 112.784 50.3534L113.187 47.4002C114.454 47.5957 115.733 47.7078 117.016 47.7359C118.762 47.7359 119.232 47.3667 119.232 46.8633C119.232 46.3599 118.426 46.1586 117.385 45.8566C115.471 45.2861 112.817 44.5142 112.817 41.5611C112.817 38.6079 115.403 37.534 118.158 37.534C119.621 37.5197 121.075 37.7581 122.457 38.2387L121.819 41.0576C120.719 40.7889 119.592 40.6426 118.46 40.6215C117.385 40.6215 116.881 40.9234 116.881 41.3932C116.881 41.8631 117.721 42.1986 118.829 42.5342C120.542 43.2725 123.062 44.2458 123.062 46.7962V46.6955ZM130.619 50.9574C131.837 50.931 133.046 50.739 134.213 50.3869L133.843 47.3332C132.952 47.5504 132.04 47.674 131.123 47.7023C130.048 47.7023 129.712 47.4002 129.712 46.4606V40.8899H133.642V38.0039H129.712V35.4198H125.849V38.0039H123.968V40.8899H125.849V46.7962C125.95 49.9507 127.663 50.9574 130.619 50.9574ZM140.292 50.6554H136.429V37.9031H140.292V39.6146C140.673 39.062 141.171 38.6007 141.752 38.2641C142.333 37.9275 142.982 37.724 143.651 37.6683C144.24 37.6421 144.83 37.7101 145.397 37.8696L144.894 41.0576C144.324 40.9925 143.75 40.9925 143.181 41.0576C142.135 41.0629 141.129 41.4578 140.359 42.1651L140.292 50.6554ZM151.074 50.9574C152.594 50.8583 154.048 50.2961 155.239 49.3466V50.6554H159.101V37.9031H155.239V46.9304C154.343 47.3438 153.37 47.5612 152.384 47.568C151.074 47.568 150.671 47.266 150.671 45.521V37.9031H146.808V45.823C146.909 48.7761 147.211 50.9574 151.174 50.9574H151.074ZM172.066 50.5212C170.97 50.8073 169.84 50.9428 168.707 50.9238C163.333 50.9238 161.318 48.9439 161.318 44.2121C161.254 43.294 161.392 42.373 161.723 41.5138C162.053 40.6546 162.567 39.8779 163.23 39.2384C163.892 38.5989 164.687 38.1119 165.558 37.8117C166.428 37.5114 167.355 37.4052 168.271 37.5004C169.678 37.4375 171.078 37.738 172.335 38.373L171.327 41.1919C170.413 40.8123 169.429 40.6294 168.439 40.655C166.826 40.655 165.281 41.3932 165.281 44.0108C165.281 46.6284 165.886 47.6016 168.909 47.6016C169.676 47.5969 170.441 47.5182 171.193 47.3667H171.63L172.167 50.3198L172.066 50.5212ZM180.094 50.9574C181.312 50.931 182.521 50.739 183.687 50.3869L183.318 47.3332C182.415 47.551 181.492 47.6747 180.564 47.7023C179.523 47.7023 179.187 47.4002 179.187 46.4606V40.8899H183.117V38.0039H179.187V35.4198H175.324V38.0039H173.443V40.8899H175.324V46.7962C175.425 49.9507 177.138 50.9574 180.194 50.9574H180.094ZM189.767 50.6554H185.871V37.9031H189.767V50.6554ZM205.284 44.2793C205.355 45.1787 205.23 46.0827 204.917 46.929C204.605 47.7754 204.112 48.5441 203.474 49.182C202.835 49.8199 202.066 50.312 201.219 50.6243C200.372 50.9366 199.467 51.0617 198.567 50.991C197.691 51.0704 196.809 50.9547 195.984 50.6525C195.158 50.3502 194.41 49.8687 193.793 49.2428C193.177 48.617 192.706 47.8622 192.417 47.0329C192.127 46.2036 192.025 45.3205 192.118 44.4471C192.053 43.549 192.182 42.6475 192.497 41.8037C192.811 40.96 193.304 40.1938 193.941 39.5571C194.579 38.9204 195.345 38.4282 196.19 38.1139C197.034 37.7996 197.937 37.6704 198.836 37.7354C199.717 37.6344 200.61 37.733 201.449 38.024C202.287 38.3149 203.049 38.7908 203.678 39.4162C204.307 40.0415 204.787 40.8004 205.083 41.6365C205.378 42.4725 205.482 43.3643 205.385 44.2457L205.284 44.2793ZM198.567 47.8365C196.518 47.8365 195.846 46.4941 195.846 44.3128C195.846 42.1315 196.451 40.6885 198.533 40.6885C200.616 40.6885 201.187 42.2323 201.187 44.2793C201.187 46.3264 200.918 47.87 198.802 47.87L198.567 47.8365ZM211.364 50.6554H207.871V37.9031H211.767V39.212C212.947 38.267 214.389 37.7049 215.898 37.6011C219.895 37.6011 220.164 39.7825 220.164 42.6685V50.6554H216.301V43.0041C216.301 41.259 215.898 40.957 214.588 40.957C213.61 40.9728 212.647 41.2019 211.767 41.6282L211.364 50.6554Z" fill="#8C8E8E"/>
</g>
<defs>
<clipPath id="clip0_1501_120110">
<rect width="220" height="59.2308" fill="white" transform="translate(0 0.384644)"/>
</clipPath>
</defs>
</svg>
