<svg width="14" height="14" viewBox="0 0 14 14" fill="currentColor" xmlns="http://www.w3.org/2000/svg">
<path d="M6.99999 1.8999C8.64999 1.8999 8.87499 1.8999 9.54999 1.8999C10.15 1.8999 10.45 2.0499 10.675 2.1249C10.975 2.2749 11.2 2.3499 11.425 2.5749C11.65 2.7999 11.8 3.0249 11.875 3.3249C11.95 3.5499 12.025 3.8499 12.1 4.4499C12.1 5.1249 12.1 5.2749 12.1 6.9999C12.1 8.7249 12.1 8.8749 12.1 9.5499C12.1 10.1499 11.95 10.4499 11.875 10.6749C11.725 10.9749 11.65 11.1999 11.425 11.4249C11.2 11.6499 10.975 11.7999 10.675 11.8749C10.45 11.9499 10.15 12.0249 9.54999 12.0999C8.87499 12.0999 8.72499 12.0999 6.99999 12.0999C5.27499 12.0999 5.12499 12.0999 4.44999 12.0999C3.84999 12.0999 3.54999 11.9499 3.32499 11.8749C3.02499 11.7249 2.79999 11.6499 2.57499 11.4249C2.34999 11.1999 2.19999 10.9749 2.12499 10.6749C2.04999 10.4499 1.97499 10.1499 1.89999 9.5499C1.89999 8.8749 1.89999 8.7249 1.89999 6.9999C1.89999 5.2749 1.89999 5.1249 1.89999 4.4499C1.89999 3.8499 2.04999 3.5499 2.12499 3.3249C2.27499 3.0249 2.34999 2.7999 2.57499 2.5749C2.79999 2.3499 3.02499 2.1999 3.32499 2.1249C3.54999 2.0499 3.84999 1.9749 4.44999 1.8999C5.12499 1.8999 5.34999 1.8999 6.99999 1.8999ZM6.99999 0.774902C5.27499 0.774902 5.12499 0.774902 4.44999 0.774902C3.77499 0.774902 3.32499 0.924903 2.94999 1.0749C2.57499 1.2249 2.19999 1.4499 1.82499 1.8249C1.44999 2.1999 1.29999 2.4999 1.07499 2.9499C0.924994 3.3249 0.849994 3.7749 0.774994 4.4499C0.774994 5.1249 0.774994 5.3499 0.774994 6.9999C0.774994 8.7249 0.774994 8.8749 0.774994 9.5499C0.774994 10.2249 0.924994 10.6749 1.07499 11.0499C1.22499 11.4249 1.44999 11.7999 1.82499 12.1749C2.19999 12.5499 2.49999 12.6999 2.94999 12.9249C3.32499 13.0749 3.77499 13.1499 4.44999 13.2249C5.12499 13.2249 5.34999 13.2249 6.99999 13.2249C8.64999 13.2249 8.87499 13.2249 9.54999 13.2249C10.225 13.2249 10.675 13.0749 11.05 12.9249C11.425 12.7749 11.8 12.5499 12.175 12.1749C12.55 11.7999 12.7 11.4999 12.925 11.0499C13.075 10.6749 13.15 10.2249 13.225 9.5499C13.225 8.8749 13.225 8.6499 13.225 6.9999C13.225 5.3499 13.225 5.1249 13.225 4.4499C13.225 3.7749 13.075 3.3249 12.925 2.9499C12.775 2.5749 12.55 2.1999 12.175 1.8249C11.8 1.4499 11.5 1.2999 11.05 1.0749C10.675 0.924903 10.225 0.849902 9.54999 0.774902C8.87499 0.774902 8.72499 0.774902 6.99999 0.774902Z" fill="white"/>
<path d="M6.99999 3.7749C5.19999 3.7749 3.77499 5.1999 3.77499 6.9999C3.77499 8.7999 5.19999 10.2249 6.99999 10.2249C8.79999 10.2249 10.225 8.7999 10.225 6.9999C10.225 5.1999 8.79999 3.7749 6.99999 3.7749ZM6.99999 9.0999C5.87499 9.0999 4.89999 8.1999 4.89999 6.9999C4.89999 5.8749 5.79999 4.8999 6.99999 4.8999C8.12499 4.8999 9.09999 5.7999 9.09999 6.9999C9.09999 8.1249 8.12499 9.0999 6.99999 9.0999Z" fill="white"/>
<path d="M10.3 4.4499C10.7142 4.4499 11.05 4.11412 11.05 3.6999C11.05 3.28569 10.7142 2.9499 10.3 2.9499C9.88578 2.9499 9.54999 3.28569 9.54999 3.6999C9.54999 4.11412 9.88578 4.4499 10.3 4.4499Z" fill="white"/>
</svg>
