<svg version="1.2" xmlns="http://www.w3.org/2000/svg" viewBox="0 0 123 40" width="123" height="40">
	<title>logo2</title>
	<defs>
		<clipPath clipPathUnits="userSpaceOnUse" id="cp1">
			<path d="m51.44 20q0 5.95-2.08 10.29-2.08 4.34-5.77 6.61-3.69 2.26-8.37 2.26-4.74 0-8.42-2.26-3.69-2.26-5.77-6.61-2.08-4.35-2.08-10.29 0-5.95 2.08-10.29 2.08-4.34 5.77-6.61 3.69-2.26 8.42-2.26 4.69 0.01 8.37 2.26 3.69 2.26 5.77 6.61 2.08 4.33 2.08 10.29z"/>
		</clipPath>
		<clipPath clipPathUnits="userSpaceOnUse" id="cp2">
			<path d="m51.44 20q0 5.95-2.08 10.29-2.08 4.34-5.77 6.61-3.69 2.26-8.37 2.26-4.74 0-8.42-2.26-3.69-2.26-5.77-6.61-2.08-4.35-2.08-10.29 0-5.95 2.08-10.29 2.08-4.34 5.77-6.61 3.69-2.26 8.42-2.26 4.69 0.01 8.37 2.26 3.69 2.26 5.77 6.61 2.08 4.33 2.08 10.29z"/>
		</clipPath>
	</defs>
	<style>
		.s0 { fill: #ed3237 } 
		.s1 { fill: #0267b1 } 
		.s2 { fill: #ffffff } 
	</style>
	<g>
		<path class="s0" d="m0 1.6v8h6.8v28.8h10.5v-36.8z"/>
		<g>
			<path fill-rule="evenodd" class="s1" d="m88.8 18.1h-4.3v-12.5h-4.6v-3.6h13.5v3.6h-4.6zm-10.7-3.5h-5.9l-1.4 3.5h-4.2l7-16.1h3.8l6.8 16.1h-4.7zm-2.9-7.6l-2 5h3.9zm-8.9-0.6q-1.2-0.8-1.9-1.1-0.8-0.3-1.6-0.3-0.6 0-1.1 0.4-0.4 0.3-0.5 0.9 0 0.6 0.3 1 0.4 0.4 1.5 0.9 1.2 0.6 1.9 1.1 0.8 0.4 1.3 0.8 0.7 0.6 1.1 1.5 0.4 0.9 0.4 1.9 0 1.1-0.5 2.1-0.4 0.9-1.2 1.6-0.9 0.6-2 1-1.1 0.4-2.5 0.4-1.5 0-2.9-0.4-1.4-0.4-2.9-1.4l0.5-3.8q2.2 1.9 4.4 2.1 0.9 0.1 1.4-0.4 0.6-0.4 0.6-1.2 0-0.5-0.4-0.9-0.3-0.4-1.3-0.9-1.2-0.6-1.7-0.9-1.5-0.8-2.2-1.9-0.7-1-0.7-2.5 0-1.2 0.6-2.2 0.6-1 1.6-1.7 0.7-0.4 1.6-0.6 1-0.3 1.8-0.3 0.8 0 1.4 0.1 0.6 0.1 1.2 0.2 0.6 0.2 1.3 0.4 0.6 0.3 1.4 0.7z"/>
			<path fill-rule="evenodd" class="s1" d="m113.5 22q0.6 0 1-0.1 0.6 0 1.4-0.1 0.7 0 1.1 0 1.7 0 2.8 0.3 1 0.3 1.8 1 1.4 1.2 1.4 3.5 0 0.6-0.2 1.2-0.1 0.6-0.5 1.1-0.3 0.5-0.8 1-0.4 0.4-0.9 0.7-1.3 0.7-3.6 0.7-0.3 0-0.8 0-0.6 0-1.1-0.1v6.8h-1.6v-16zm1.6 8q0.5 0 1 0 0.4 0 0.9 0 2.1 0 3.3-0.9 1.1-0.9 1.1-2.6 0-3.4-4.4-3.4-0.4 0-0.8 0-0.4 0-1.1 0.1c0 0 0 6.8 0 6.8zm-14.6-8v9.3q0 0.7 0 1.1 0 0.5 0 0.8 0.1 0.4 0.1 0.6 0.1 0.3 0.2 0.6 0.4 1.2 1.6 2 1.2 0.7 3 0.7 2.8 0 4-1.8 0.4-0.6 0.6-1.4 0.2-0.8 0.2-2.2v-9.7h1.5v9.6q0 1.1-0.1 1.9-0.1 0.9-0.4 1.5-0.2 0.7-0.6 1.2-0.3 0.5-0.9 0.9-0.8 0.6-2 1-1.2 0.3-2.5 0.3-2.3 0-3.8-0.9-1.5-0.9-2.1-2.6-0.2-0.6-0.3-1.3-0.1-0.7 0-2v-9.6zm-11-0.4q1.4 0 2.4 0.2 1 0.3 1.9 0.8 2 1.1 3 3.1 1 1.9 1 4.3 0 1.9-0.6 3.4-0.6 1.6-1.7 2.7-1.1 1.1-2.6 1.7-1.4 0.6-3.3 0.6-1.7 0-3.2-0.6-1.5-0.7-2.6-1.8-1.1-1.1-1.7-2.7-0.6-1.6-0.6-3.5 0.1-1.9 0.8-3.6 0.8-1.7 2.3-2.9 1-0.8 2.3-1.2 1.4-0.5 2.6-0.5zm0 1.4q-1.4 0-2.6 0.5-1.1 0.5-2 1.4-0.8 0.9-1.3 2.1-0.4 1.3-0.4 2.8 0 1.6 0.5 3 0.6 1.4 1.6 2.3 0.9 0.9 2 1.4 1.2 0.5 2.3 0.5 3.7 0 5.4-2.6 1.2-1.7 1.2-4.3 0-1.5-0.5-2.8-0.5-1.3-1.4-2.3-0.9-1-2.2-1.5-1.2-0.5-2.6-0.5zm-17.9-1q0.6 0 1.1-0.1 0.4 0 0.8 0 0.4-0.1 0.8-0.1 0.5 0 1.1 0 2.9 0 4.3 1.5 1.2 1.2 1.2 3.1 0 1.5-0.9 2.7-0.8 1.1-2.4 1.6l5.2 7.4h-1.9l-4.7-7h-3.1v7h-1.5v-16.1zm4.8 7.9q0.6 0 1.1-0.3 0.6-0.3 1-0.8 0.4-0.4 0.7-1 0.2-0.7 0.2-1.3 0-1.6-1.1-2.5-1.1-0.9-3-0.9h-0.5q-0.4 0-0.7 0-0.4 0-0.9 0v6.8zm-7.5-5.1q-1.1-0.9-2.3-1.4-1.3-0.4-2.7-0.4-1.5 0-2.7 0.5-1.2 0.5-2.1 1.4-0.8 1-1.3 2.2-0.5 1.3-0.5 2.9 0 1.5 0.6 3 0.7 1.5 1.8 2.4 0.8 0.7 2.1 1.2 1.2 0.4 2.4 0.5 0.7 0 1.3-0.1 0.5 0 0.9-0.1 0.5-0.1 0.9-0.3 0.5-0.2 1-0.5v-4.7h-4.2l0.2-1.3h5.5v6.7q-1.4 0.8-2.7 1.2-1.3 0.4-3 0.4-1.9 0-3.4-0.6-1.6-0.6-2.7-1.8-1.1-1.1-1.7-2.6-0.6-1.6-0.6-3.5 0-1.7 0.6-3.3 0.6-1.5 1.7-2.6 1.1-1.1 2.6-1.7 1.5-0.7 3.3-0.7 1.7 0 3.2 0.5 1.4 0.4 2.7 1.5z"/>
		</g>
		<g>
			<g id="Clip-Path" clip-path="url(#cp1)">
				<g>
					<path class="s0" d="m51.4 20q0 6-2 10.3-2.1 4.3-5.8 6.6-3.7 2.3-8.4 2.3-4.7 0-8.4-2.3-3.7-2.3-5.8-6.6-2.1-4.4-2-10.3-0.1-5.9 2-10.3 2.1-4.3 5.8-6.6 3.7-2.3 8.4-2.3 4.7 0 8.4 2.3 3.7 2.3 5.8 6.6 2 4.3 2 10.3z"/>
				</g>
			</g>
			<g id="Clip-Path" clip-path="url(#cp2)">
				<path fill-rule="evenodd" class="s2" d="m40 18.7c-5.3 21.1-18 33.7-38.7 20.8 21.5 7.6 26.2-9.3 29.8-20.8h-7.3l14-12 8.9 12z"/>
			</g>
		</g>
		<g>
			<path class="s2" d="m41.5 29.4c-0.7 1.1-1.3 2.1-1.6 3-0.6 1.4 0.2 1.5 0.9 0.8 0.6-0.7 1.6-2.2 2-2.9-0.4 1.1-1.1 2.5-1.9 3.2-0.7 0.5-1.4 0.4-1.8 0q-0.3-0.4-0.1-1.4c0.1-0.6 0.4-1.2 0.6-1.7q0.3-0.4 0.5-0.8c0.5-0.7 1.7-0.6 1.4-0.1zm1-1.7c0.4-1.2-1 0.4-1.3 0.6-0.4 0.1-0.4-1.1 0.2-1.5 0.7-0.4 1.8 0.4 1.1 0.9z"/>
			<path class="s2" d="m46.9 25.6c0.2 0.8-1.3 3.3-3.5 4.9 0-0.1 0.3-0.5 0.6-0.7 1.1-1.1 2.3-2.7 2.3-3.2q0-0.1 0-0.1c-0.9 0-3.9 5-3.9 6.6q0 0.4 0.3 0.4c0.8 0 2.2-2.2 2.7-3.2-0.3 1.3-1.8 3.6-3 3.6-0.5 0-1-0.3-0.9-0.9 0.1-1.8 2-5.5 3.6-7.1 0.9-0.8 1.7-1 1.8-0.3z"/>
		</g>
	</g>
</svg>