<svg width="123" height="40" viewBox="0 0 123 40" fill="none" xmlns="http://www.w3.org/2000/svg">
<g clip-path="url(#clip0_2385_9200)">
<path fill-rule="evenodd" clip-rule="evenodd" d="M55.065 12.9911C49.724 34.1047 37.0875 46.7953 16.5284 33.8583C37.9148 41.4244 42.6229 24.5503 46.1429 12.9966H38.9697L52.8498 0.922119L61.6442 12.9911H55.065Z" fill="#ED3237"/>
<g clip-path="url(#clip1_2385_9200)">
<path fill-rule="evenodd" clip-rule="evenodd" d="M34.1588 31.9424H29.756V19.2731H25.1312V15.6517H38.7892V19.2731H34.1588V31.9424ZM20.4786 20.6158L18.4243 25.6802H22.4051L20.4786 20.6158ZM23.3934 28.36H17.4083L15.9481 31.9424H11.7896L18.7685 15.6573H22.6105L29.484 31.9424H24.8314L23.3934 28.36ZM11.4177 20.0029C10.8137 19.5921 10.1724 19.2395 9.50221 18.9499C9.00285 18.7472 8.46967 18.6413 7.93098 18.6379C7.53003 18.6247 7.13713 18.7528 6.82057 19.0001C6.67537 19.1103 6.55523 19.2503 6.46811 19.4107C6.381 19.5711 6.32891 19.7483 6.31533 19.9305C6.29411 20.1051 6.31201 20.2822 6.36772 20.449C6.42343 20.6157 6.51556 20.7679 6.63736 20.8944C7.0715 21.2851 7.56425 21.6047 8.09753 21.8415C8.89147 22.2538 9.54662 22.6159 10.063 22.9223C10.5131 23.1783 10.9403 23.4729 11.3399 23.8026C11.8186 24.2112 12.1983 24.7237 12.4503 25.3013C12.7092 25.8932 12.8434 26.5324 12.8445 27.1789C12.8538 27.9028 12.698 28.6193 12.3893 29.2737C12.0907 29.9179 11.6548 30.4885 11.1123 30.9451C10.5319 31.4178 9.86926 31.7786 9.15797 32.0092C8.35151 32.2727 7.50764 32.4026 6.65956 32.3937C5.64978 32.3978 4.645 32.2513 3.67812 31.9591C2.65472 31.6344 1.67701 31.1794 0.76886 30.6053L1.24079 26.7053C2.73983 28.0313 4.22778 28.75 5.68241 28.867C6.19732 28.937 6.71947 28.8075 7.1426 28.5048C7.32746 28.3612 7.47464 28.1745 7.57139 27.961C7.66813 27.7474 7.71152 27.5133 7.6978 27.2791C7.69879 26.9356 7.56518 26.6055 7.32581 26.3599C6.93826 25.9957 6.49611 25.6949 6.01552 25.4684C5.17161 25.0172 4.58866 24.7107 4.25553 24.5492C3.37327 24.1101 2.61099 23.4618 2.03472 22.6605C1.56463 21.8928 1.32914 21.0038 1.35737 20.1032C1.3571 19.3154 1.56184 18.5411 1.95136 17.8571C2.34088 17.1731 2.90166 16.603 3.57819 16.2033C4.08847 15.9009 4.63769 15.6704 5.21048 15.518C5.79044 15.3529 6.38986 15.2667 6.99268 15.2617C7.45082 15.2589 7.90872 15.2831 8.36403 15.3341C8.78517 15.3841 9.2025 15.4623 9.61324 15.5681C10.0492 15.6851 10.476 15.8341 10.8902 16.0138C11.3233 16.2088 11.8174 16.4428 12.3615 16.7214L11.4177 20.0029Z" fill="#044AB1"/>
<path fill-rule="evenodd" clip-rule="evenodd" d="M115.241 23.7689C115.618 23.8023 115.963 23.819 116.268 23.819H117.217C118.388 23.8924 119.549 23.5643 120.51 22.8886C120.897 22.5705 121.205 22.165 121.406 21.7051C121.608 21.2451 121.698 20.7439 121.67 20.2422C121.67 17.9431 120.169 16.7935 117.167 16.7935C116.94 16.7935 116.679 16.7935 116.39 16.7935L115.241 16.8715V23.7689ZM113.703 15.7015C114.086 15.7015 114.397 15.657 114.647 15.6235C115.091 15.5901 115.563 15.5622 116.068 15.54C116.573 15.5177 116.956 15.501 117.217 15.501C118.153 15.4787 119.086 15.5837 119.993 15.813C120.678 15.9982 121.313 16.3331 121.853 16.7935C122.331 17.2419 122.705 17.7902 122.949 18.3996C123.193 19.009 123.3 19.6646 123.264 20.3202C123.263 20.7315 123.203 21.1406 123.086 21.5348C122.971 21.9371 122.801 22.3214 122.581 22.6769C122.36 23.0372 122.093 23.3668 121.787 23.6575C121.487 23.9439 121.151 24.1893 120.787 24.3873C119.665 24.9048 118.435 25.1436 117.201 25.0837H116.357L115.246 25.0447V31.9421H113.709L113.703 15.7015ZM100.528 15.6514V25.1227C100.528 25.535 100.528 25.8971 100.528 26.2036C100.528 26.51 100.528 26.7607 100.578 27.0114C100.628 27.2621 100.639 27.4516 100.678 27.641C100.717 27.8304 100.767 28.0087 100.817 28.1981C101.104 29.0525 101.698 29.7693 102.482 30.2094C103.394 30.7124 104.424 30.9606 105.464 30.9281C107.363 30.9281 108.732 30.332 109.572 29.1397C109.852 28.7109 110.04 28.2293 110.127 27.7246C110.254 26.9887 110.311 26.2426 110.3 25.496V15.6514H111.832V25.4069C111.836 26.0548 111.799 26.7024 111.721 27.3457C111.659 27.8561 111.544 28.3585 111.377 28.8444C111.228 29.2631 111.019 29.6573 110.755 30.0144C110.487 30.3636 110.176 30.6764 109.828 30.9448C109.218 31.3965 108.531 31.7326 107.801 31.9365C106.98 32.1729 106.129 32.2893 105.275 32.2819C103.936 32.3277 102.609 32.006 101.438 31.3515C100.437 30.779 99.6801 29.857 99.3121 28.7608C99.1724 28.3247 99.0811 27.8744 99.04 27.4181C98.99 26.9223 98.9679 26.2426 98.9679 25.3846V15.6514H100.528ZM89.4794 16.6654C88.5911 16.656 87.7103 16.8305 86.8922 17.1779C86.1271 17.5043 85.44 17.9905 84.8768 18.6042C84.3013 19.241 83.8594 19.9875 83.5776 20.7993C83.2626 21.7147 83.1086 22.678 83.1224 23.6463C83.1186 24.6571 83.307 25.6593 83.6776 26.5991C84.0249 27.5043 84.5606 28.3249 85.2488 29.006C85.8331 29.5922 86.5276 30.0562 87.2919 30.371C88.0294 30.694 88.8247 30.8627 89.6294 30.8668C92.05 30.8668 93.847 29.9977 95.0204 28.2594C95.8522 26.9513 96.2667 25.4198 96.2085 23.8692C96.2182 22.8933 96.0469 21.9241 95.7033 21.0111C95.3828 20.1663 94.9041 19.3909 94.293 18.7268C93.6895 18.0813 92.96 17.5674 92.15 17.2169C91.3087 16.8456 90.3985 16.6576 89.4794 16.6654ZM89.4794 15.3004C90.278 15.2889 91.0753 15.3693 91.8557 15.54C92.5598 15.7058 93.2354 15.9762 93.86 16.3422C95.1159 17.0547 96.1412 18.1145 96.8137 19.3954C97.5156 20.7599 97.8686 22.2781 97.8408 23.8135C97.8547 24.9862 97.6533 26.1514 97.2467 27.251C96.8807 28.2455 96.3105 29.1517 95.5731 29.9109C94.8357 30.6701 93.9475 31.2653 92.9661 31.6579C91.9064 32.0799 90.7748 32.29 89.6349 32.2764C88.509 32.2896 87.3924 32.0715 86.3536 31.6357C85.3818 31.2202 84.5036 30.6118 83.7719 29.8472C83.0294 29.0604 82.4517 28.1321 82.073 27.1173C81.6591 26.0077 81.452 24.8311 81.4623 23.6463C81.45 22.3556 81.725 21.0784 82.2674 19.9079C82.7883 18.7743 83.5727 17.7827 84.5548 17.0164C85.9825 15.9358 87.7137 15.3353 89.5016 15.3004H89.4794ZM72.9899 23.6575H76.2323C76.6398 23.6581 77.0415 23.5607 77.4038 23.3733C77.7753 23.1841 78.107 22.925 78.3809 22.61C78.9739 21.9455 79.3003 21.084 79.297 20.1921C79.3162 19.7158 79.2261 19.2416 79.0336 18.8059C78.841 18.3702 78.5513 17.9848 78.1866 17.6794C77.3232 17.0171 76.2511 16.6888 75.1663 16.7545H74.6111C74.3446 16.7545 74.1059 16.7545 73.8782 16.7545C73.6506 16.7545 73.3563 16.7545 72.9788 16.8158L72.9899 23.6575ZM71.4686 15.7238L72.518 15.6012C72.8067 15.5678 73.0732 15.5455 73.3563 15.54H74.2003H75.2496C77.2483 15.54 78.714 16.0358 79.6579 17.0275C80.3653 17.8189 80.7806 18.8301 80.8341 19.8919C80.8877 20.9536 80.5763 22.0017 79.9522 22.8607C79.3363 23.6576 78.4882 24.2418 77.5259 24.5322L82.7615 31.9421H80.9071L76.0824 24.8664H73.0399V31.9421H71.4686V15.7238ZM68.7537 18.5095C68.0449 17.922 67.2412 17.4603 66.3774 17.1445C65.5225 16.8282 64.6181 16.6678 63.7069 16.671C62.7776 16.6582 61.8556 16.8365 60.9975 17.1947C60.2038 17.5262 59.4873 18.0195 58.8933 18.6432C58.2969 19.2881 57.8345 20.0456 57.533 20.8718C57.2016 21.7855 57.0379 22.752 57.05 23.7243C57.0533 24.781 57.2725 25.8258 57.6941 26.7941C58.08 27.7374 58.6832 28.5756 59.454 29.24C60.0692 29.768 60.7772 30.1762 61.5416 30.4434C62.3207 30.7392 63.146 30.8939 63.979 30.9002C64.4731 30.9002 64.9006 30.9002 65.267 30.8668C65.6035 30.8426 65.9376 30.7924 66.2664 30.7164C66.5761 30.6423 66.8789 30.5417 67.1714 30.4155C67.5021 30.274 67.8246 30.1141 68.1374 29.9364V25.2063H63.9179L64.1122 23.9193H69.6642V30.644C68.8201 31.1871 67.9044 31.609 66.9437 31.8975C65.9523 32.1667 64.9283 32.2961 63.9012 32.2819C62.7178 32.2978 61.5421 32.088 60.4368 31.6635C59.4287 31.2706 58.5135 30.671 57.7496 29.903C56.9903 29.1251 56.3971 28.1999 56.0062 27.1841C55.5841 26.0708 55.375 24.8876 55.39 23.6965C55.3791 22.5627 55.5982 21.4387 56.034 20.3926C56.4405 19.3971 57.0364 18.4907 57.7884 17.7239C58.5607 16.943 59.4818 16.326 60.4966 15.9096C61.5115 15.4933 62.5995 15.2861 63.6958 15.3004C64.7909 15.2883 65.8812 15.4481 66.9271 15.774C67.9233 16.105 68.8495 16.6188 69.6587 17.2894L68.7537 18.5095Z" fill="#044AB1"/>
<path fill-rule="evenodd" clip-rule="evenodd" d="M55.5671 13.0275C50.2261 34.0316 37.5897 46.6563 17.0305 33.7865C38.4169 41.3134 43.1251 24.5269 46.645 13.0331H39.4718L53.3519 1.02124L62.1463 13.0275H55.5671Z" fill="#CD2227"/>
</g>
</g>
<defs>
<clipPath id="clip0_2385_9200">
<rect width="122.5" height="38.1557" fill="white" transform="translate(0.25 0.922119)"/>
</clipPath>
<clipPath id="clip1_2385_9200">
<rect width="122.5" height="37.9577" fill="white" transform="translate(0.752075 1.02124)"/>
</clipPath>
</defs>
</svg>
