<?xml version="1.0" standalone="no"?>
<!DOCTYPE svg PUBLIC "-//W3C//DTD SVG 20010904//EN"
 "http://www.w3.org/TR/2001/REC-SVG-20010904/DTD/svg10.dtd">
<svg version="1.0" xmlns="http://www.w3.org/2000/svg"
 width="500.000000pt" height="500.000000pt" viewBox="0 0 500.000000 500.000000"
 preserveAspectRatio="xMidYMid meet">

<g transform="translate(0.000000,500.000000) scale(0.100000,-0.100000)"
fill="#000000" stroke="none">
<path d="M1693 2975 c-135 -42 -235 -156 -274 -315 -18 -71 -18 -249 0 -320
16 -64 51 -140 88 -189 l26 -33 30 48 c35 57 90 188 122 291 l23 73 -90 0
c-80 0 -89 2 -78 15 19 23 342 300 348 298 7 -3 222 -298 222 -305 0 -5 -38
-8 -85 -8 -67 0 -85 -3 -85 -14 0 -30 -64 -204 -105 -286 -24 -47 -63 -113
-88 -147 -43 -58 -45 -61 -24 -67 12 -3 54 -6 93 -6 144 0 263 61 334 171 48
74 67 130 80 237 12 91 1 214 -26 294 -23 71 -87 163 -141 202 -92 69 -259 96
-370 61z m427 -627 c0 -23 -47 -98 -62 -98 -13 0 -48 -62 -48 -85 1 -16 7 -13
37 20 35 40 35 40 19 7 -21 -40 -59 -61 -80 -43 -10 8 -16 9 -21 1 -11 -17
-43 -11 -50 9 -7 23 15 80 39 100 28 23 32 2 8 -39 -12 -21 -22 -46 -22 -55 0
-34 25 -6 66 76 55 107 114 163 114 107z m-127 -50 c-16 -18 -18 -19 -21 -3
-4 19 16 37 31 28 4 -3 0 -14 -10 -25z"/>
<path d="M2078 2303 c-8 -10 -19 -25 -23 -33 -8 -13 -7 -13 9 -1 16 14 41 51
33 51 -2 0 -11 -8 -19 -17z"/>
<path d="M910 2870 l0 -100 90 0 90 0 0 -370 0 -370 130 0 130 0 0 470 0 470
-220 0 -220 0 0 -100z"/>
<path d="M2432 2953 c-65 -32 -82 -117 -36 -173 15 -17 48 -42 75 -55 26 -14
51 -29 54 -35 12 -19 -4 -57 -25 -63 -28 -7 -82 9 -114 34 l-26 20 0 -34 c0
-20 -2 -42 -5 -49 -7 -18 52 -47 110 -55 93 -12 165 25 186 97 18 60 -9 105
-91 151 -66 37 -81 58 -60 84 16 19 53 19 91 0 28 -15 30 -15 39 10 16 43 12
55 -25 71 -46 19 -132 18 -173 -3z"/>
<path d="M2732 2770 c-46 -105 -85 -197 -89 -205 -4 -12 5 -15 45 -15 l50 0
18 45 17 45 81 0 82 0 15 -42 16 -43 56 -3 c32 -2 57 -1 57 2 0 3 -38 94 -84
203 l-84 198 -49 3 -49 3 -82 -191z m152 2 l25 -62 -54 0 -53 0 26 65 c14 36
27 63 29 62 2 -2 14 -32 27 -65z"/>
<path d="M2980 2920 l0 -39 58 -3 57 -3 3 -162 2 -163 50 0 50 0 2 163 3 162
58 3 57 3 0 39 0 40 -170 0 -170 0 0 -40z"/>
<path d="M2522 2448 c-62 -10 -108 -43 -140 -96 -22 -39 -27 -58 -26 -114 0
-85 36 -150 103 -185 54 -28 150 -31 211 -7 l40 16 0 84 0 84 -70 0 c-40 0
-70 -4 -70 -10 0 -5 25 -10 55 -10 l55 0 0 -65 c0 -61 -2 -66 -26 -75 -38 -15
-131 -12 -163 4 -127 66 -134 258 -13 329 47 27 129 27 177 -2 43 -25 41 -25
48 -7 14 35 -99 69 -181 54z"/>
<path d="M3189 2450 c-145 -25 -213 -200 -129 -333 35 -56 96 -87 168 -87 130
0 206 78 206 210 0 144 -105 233 -245 210z m132 -55 c54 -35 82 -101 77 -176
-7 -97 -70 -159 -161 -159 -99 0 -168 67 -175 170 -11 157 132 249 259 165z"/>
<path d="M2770 2245 c0 -176 2 -205 15 -205 12 0 15 17 15 90 l0 90 40 0 c39
0 41 -2 100 -90 43 -64 66 -90 81 -90 23 0 24 -2 -44 94 -61 85 -63 93 -37
101 27 9 60 62 60 98 0 43 -28 87 -65 103 -19 8 -64 14 -100 14 l-65 0 0 -205z
m163 155 c34 -27 43 -70 23 -109 -21 -40 -44 -51 -105 -51 l-51 0 0 90 0 90
54 0 c38 0 60 -6 79 -20z"/>
<path d="M3472 2288 c4 -184 12 -214 72 -242 48 -23 142 -21 183 4 62 37 68
57 72 237 3 160 3 163 -18 163 -20 0 -21 -4 -21 -154 0 -85 -4 -166 -10 -180
-19 -50 -126 -74 -189 -42 -44 23 -51 53 -51 221 0 150 -1 155 -21 155 -20 0
-21 -3 -17 -162z"/>
<path d="M3850 2245 c0 -176 2 -205 15 -205 12 0 15 16 15 85 l0 85 50 0 c92
0 148 38 157 108 7 52 -18 99 -62 118 -19 8 -66 14 -105 14 l-70 0 0 -205z
m181 149 c21 -22 27 -63 15 -102 -10 -31 -56 -52 -116 -52 l-50 0 0 91 0 91
65 -4 c49 -3 71 -9 86 -24z"/>
</g>
</svg>
