<svg width="63" height="63" viewBox="0 0 63 63" fill="none" xmlns="http://www.w3.org/2000/svg">
<path d="M49.8073 23.6247C49.8073 27.4061 48.6859 30.8746 46.7561 33.7693C43.9396 37.9418 39.4802 40.8886 34.2906 41.6449C33.404 41.8014 32.4912 41.8796 31.5524 41.8796C30.6136 41.8796 29.7008 41.8014 28.8142 41.6449C23.6245 40.8886 19.1651 37.9418 16.3487 33.7693C14.4189 30.8746 13.2975 27.4061 13.2975 23.6247C13.2975 13.5324 21.46 5.36981 31.5524 5.36981C41.6447 5.36981 49.8073 13.5324 49.8073 23.6247Z" stroke="white" stroke-width="2.5" stroke-linecap="round" stroke-linejoin="round"/>
<path d="M55.6761 48.3212L51.3732 49.3382C50.4083 49.5729 49.652 50.3032 49.4434 51.2681L48.5306 55.1016C48.0351 57.1879 45.3751 57.8138 43.993 56.1708L31.5536 41.8798L19.1142 56.1969C17.732 57.8398 15.072 57.2139 14.5765 55.1276L13.6638 51.2941C13.4291 50.3292 12.6728 49.573 11.734 49.3643L7.43102 48.3473C5.44906 47.8779 4.74494 45.4004 6.17925 43.9661L16.3498 33.7955C19.1663 37.9681 23.6257 40.915 28.8153 41.6712C29.702 41.8277 30.6147 41.9059 31.5536 41.9059C32.4924 41.9059 33.4051 41.8277 34.2918 41.6712C39.4814 40.915 43.9408 37.9681 46.7573 33.7955L56.9279 43.9661C58.3622 45.3743 57.6581 47.8518 55.6761 48.3212Z" stroke="white" stroke-width="2.5" stroke-linecap="round" stroke-linejoin="round"/>
</svg>
