<svg width="76" height="76" viewBox="0 0 76 76" fill="none" xmlns="http://www.w3.org/2000/svg">
<path d="M38 49.0833C44.9983 49.0833 50.6667 43.415 50.6667 36.4166V19C50.6667 12.0016 44.9983 6.33331 38 6.33331C31.0017 6.33331 25.3333 12.0016 25.3333 19V36.4166C25.3333 43.415 31.0017 49.0833 38 49.0833Z" stroke="#044AB1" stroke-width="2.5" stroke-linecap="round" stroke-linejoin="round"/>
<path d="M13.7753 30.5583V35.9416C13.7753 49.305 24.637 60.1666 38.0003 60.1666C51.3636 60.1666 62.2253 49.305 62.2253 35.9416V30.5583" stroke="#044AB1" stroke-width="2.5" stroke-linecap="round" stroke-linejoin="round"/>
<path d="M33.5979 20.3616C36.4479 19.3166 39.5512 19.3166 42.4012 20.3616" stroke="#CD2227" stroke-width="2.5" stroke-linecap="round" stroke-linejoin="round"/>
<path d="M35.4673 27.075C37.1456 26.6317 38.8873 26.6317 40.5656 27.075" stroke="#CD2227" stroke-width="2.5" stroke-linecap="round" stroke-linejoin="round"/>
<path d="M38 60.1667V69.6667" stroke="#044AB1" stroke-width="2.5" stroke-linecap="round" stroke-linejoin="round"/>
</svg>
