<svg width="64" height="63" viewBox="0 0 64 63" fill="none" xmlns="http://www.w3.org/2000/svg">
<path d="M5.92157 26.2314H58.0784" stroke="white" stroke-width="2.5" stroke-miterlimit="10" stroke-linecap="round" stroke-linejoin="round"/>
<path d="M30.822 53.6125H17.4959C8.23808 53.6125 5.89099 51.3176 5.89099 42.1641V20.7276C5.89099 12.4347 7.82087 9.77466 15.0968 9.3574C15.827 9.33133 16.6353 9.30524 17.4959 9.30524H46.469C55.7269 9.30524 58.074 11.6001 58.074 20.7537V32.2543" stroke="white" stroke-width="2.5" stroke-linecap="round" stroke-linejoin="round"/>
<path d="M58.0784 47.0941C58.0784 49.05 57.5307 50.9016 56.5658 52.4663C54.7664 55.4914 51.4545 57.5255 47.647 57.5255C43.8396 57.5255 40.5277 55.4914 38.7283 52.4663C37.7634 50.9016 37.2157 49.05 37.2157 47.0941C37.2157 41.3308 41.8837 36.6628 47.647 36.6628C53.4104 36.6628 58.0784 41.3308 58.0784 47.0941Z" stroke="white" stroke-width="2.5" stroke-miterlimit="10" stroke-linecap="round" stroke-linejoin="round"/>
<path d="M43.5825 47.0933L46.1642 49.6751L51.7189 44.5377" stroke="white" stroke-width="2.5" stroke-linecap="round" stroke-linejoin="round"/>
</svg>
