<svg width="76" height="76" viewBox="0 0 76 76" fill="none" xmlns="http://www.w3.org/2000/svg">
<path d="M21.3886 41.2638L21.3625 53.4946C21.3625 56.8066 23.9182 60.3532 27.0476 61.3964L35.3666 64.1607C36.8009 64.6301 39.1741 64.6301 40.6345 64.1607L48.9535 61.3964C52.0829 60.3532 54.6386 56.8066 54.6386 53.4946V41.3942" stroke="white" stroke-width="2.5" stroke-linecap="round" stroke-linejoin="round"/>
<path d="M32.9149 13.7483L17.2157 23.9972C12.1826 27.2831 12.1826 34.6372 17.2157 37.9231L32.9149 48.1719C35.7314 50.0234 40.3734 50.0234 43.1898 48.1719L58.8108 37.9231C63.8179 34.6372 63.8179 27.3091 58.8108 24.0233L43.1898 13.7744C40.3734 11.8968 35.7314 11.8968 32.9149 13.7483Z" stroke="white" stroke-width="2.5" stroke-linecap="round" stroke-linejoin="round"/>
<path d="M62.5135 46.2706V30.6235" stroke="white" stroke-width="2.5" stroke-linecap="round" stroke-linejoin="round"/>
</svg>
