<svg width="76" height="76" viewBox="0 0 76 76" fill="none" xmlns="http://www.w3.org/2000/svg">
<path d="M69.6667 47.5V28.5C69.6667 12.6666 63.3333 6.33331 47.5 6.33331H28.5C12.6667 6.33331 6.33333 12.6666 6.33333 28.5V47.5C6.33333 63.3333 12.6667 69.6666 28.5 69.6666H47.5C63.3333 69.6666 69.6667 63.3333 69.6667 47.5Z" stroke="#044AB1" stroke-width="2.5" stroke-linecap="round" stroke-linejoin="round"/>
<path d="M7.98006 22.515H68.0201" stroke="#044AB1" stroke-width="2.5" stroke-linecap="round" stroke-linejoin="round"/>
<path d="M26.9801 6.68164V22.0716" stroke="#044AB1" stroke-width="2.5" stroke-linecap="round" stroke-linejoin="round"/>
<path d="M49.0199 6.68164V20.6466" stroke="#044AB1" stroke-width="2.5" stroke-linecap="round" stroke-linejoin="round"/>
<path d="M30.875 45.7583V41.9583C30.875 37.0816 34.3267 35.0866 38.5383 37.525L41.8317 39.425L45.125 41.325C49.3367 43.7633 49.3367 47.7533 45.125 50.1916L41.8317 52.0916L38.5383 53.9916C34.3267 56.43 30.875 54.435 30.875 49.5583V45.7583V45.7583Z" stroke="#CD2227" stroke-width="2.5" stroke-miterlimit="10" stroke-linecap="round" stroke-linejoin="round"/>
</svg>
